<svg width="549" height="412" viewBox="0 0 549 412" fill="none" xmlns="http://www.w3.org/2000/svg">
<path d="M472.4 237C453.3 237.1 436.7 241.7 422.8 248.5C417.7 238.4 412.6 229.4 411.7 222.8C410.7 215.1 409.5 210.4 410.7 201.2C411.9 192 417.3 178.9 417.2 177.9C417.1 176.9 416 172.2 405 172.1C394 172 384.5 174.2 383.4 177.1C382.3 180 380.2 186.6 378.8 193.4C376.9 203.4 356.8 239.1 345.3 257.8C341.6 250.5 338.4 244.1 337.7 239C336.7 231.3 335.5 226.6 336.7 217.4C337.9 208.2 343.3 195.1 343.2 194.1C343.1 193.1 342 188.4 331 188.3C320 188.2 310.5 190.4 309.4 193.3C308.3 196.2 307.1 203 304.8 209.6C302.5 216.2 275.8 275.8 268.8 291.2C265.2 299.1 262.1 305.4 259.9 309.7C259.9 309.7 259.8 310 259.5 310.5C257.6 314.2 256.5 316.2 256.5 316.2C256.5 316.2 256.5 316.2 256.5 316.3C255 319 253.4 321.5 252.6 321.5C252 321.5 250.9 314.3 252.8 304.5C256.8 283.8 266.3 251.6 266.2 250.5C266.2 249.9 268 244.3 260 241.4C252.2 238.5 249.4 243.3 248.7 243.3C248 243.3 247.5 245 247.5 245C247.5 245 256.2 208.8 230.9 208.8C215.1 208.8 193.3 226.1 182.5 241.7C175.7 245.4 161.2 253.3 145.7 261.8C139.8 265.1 133.7 268.4 128 271.5C127.6 271.1 127.2 270.6 126.8 270.2C96.1999 237.5 39.5999 214.4 41.9999 170.5C42.8999 154.5 48.3998 112.5 150.7 61.5C234.9 20 301.9 31.5 313.5 57C330.1 93.4 277.6 161 190.6 170.8C157.4 174.5 140 161.7 135.6 156.9C131 151.9 130.3 151.6 128.6 152.6C125.8 154.1 127.6 158.6 128.6 161.2C131.2 168 141.9 180 160 185.9C176 191.1 214.9 194 262 175.8C314.7 155.4 355.9 98.7 343.8 51.2C331.7 3.00001 251.7 -12.9 176 14C131 30 82.1998 55.2 47.0998 88C5.39985 127 -1.20015 160.9 1.49985 175.1C11.1999 225.5 80.6999 258.3 108.5 282.6C107.1 283.4 105.8 284.1 104.7 284.7C90.7999 291.6 37.7999 319.3 24.5999 348.6C9.59985 381.8 26.9999 405.6 38.4999 408.8C74.1999 418.7 110.9 400.9 130.6 371.5C150.3 342.1 147.9 303.9 138.8 286.4C138.7 286.2 138.6 286 138.4 285.8C142 283.7 145.7 281.5 149.3 279.4C156.4 275.2 163.4 271.3 169.4 268.1C166 277.4 163.5 288.5 162.3 304.5C160.8 323.3 168.5 347.7 178.6 357.3C183.1 361.5 188.4 361.6 191.8 361.6C203.6 361.6 208.9 351.8 214.8 340.2C222 326 228.5 309.5 228.5 309.5C228.5 309.5 220.4 354.1 242.4 354.1C250.4 354.1 258.5 343.7 262.1 338.4C262.1 338.5 262.1 338.5 262.1 338.5C262.1 338.5 262.3 338.2 262.7 337.5C263.5 336.2 264 335.4 264 335.4C264 335.4 264 335.3 264 335.2C267.2 329.6 274.4 316.9 285.1 295.8C298.9 268.6 312.2 234.6 312.2 234.6C312.2 234.6 313.4 242.9 317.5 256.7C319.9 264.8 324.9 273.7 328.9 282.3C325.7 286.8 323.7 289.3 323.7 289.3C323.7 289.3 323.7 289.3 323.8 289.4C321.2 292.8 318.4 296.5 315.3 300.1C304.4 313.1 291.4 328 289.6 332.3C287.5 337.4 288 341.1 292 344.1C294.9 346.3 300.1 346.6 305.4 346.3C315.2 345.6 322.1 343.2 325.5 341.7C330.8 339.8 337 336.9 342.8 332.6C353.5 324.7 360 313.4 359.4 298.5C359.1 290.3 356.4 282.1 353.1 274.4C354.1 273 355 271.6 356 270.2C372.9 245.5 386 218.4 386 218.4C386 218.4 387.2 226.7 391.3 240.5C393.3 247.5 397.4 255.1 401 262.5C385.1 275.4 375.3 290.4 371.8 300.2C365.5 318.4 370.4 326.6 379.7 328.5C383.9 329.4 389.9 327.4 394.3 325.5C399.9 323.7 406.5 320.6 412.8 316C423.5 308.1 433.8 297.1 433.2 282.2C432.9 275.4 431.1 268.7 428.6 262.2C442.1 256.6 459.5 253.5 481.7 256.1C529.3 261.7 538.7 291.4 536.9 303.9C535.1 316.4 525.1 323.2 521.8 325.3C518.5 327.4 517.4 328.1 517.7 329.6C518.1 331.8 519.7 331.7 522.5 331.3C526.4 330.6 547.5 321.2 548.4 298.2C549.9 268.8 521.9 236.7 472.4 237ZM105.2 360.8C89.3999 378 67.3999 384.5 57.8999 379C47.6999 373.1 51.6999 347.7 71.0999 329.5C82.8999 318.4 98.0999 308.1 108.2 301.8C110.5 300.4 113.9 298.4 118 295.9C118.7 295.5 119.1 295.3 119.1 295.3C119.9 294.8 120.7 294.3 121.5 293.8C128.6 319.8 121.8 342.7 105.2 360.8ZM220.2 282.6C214.7 296 203.2 330.3 196.2 328.4C190.2 326.8 186.5 300.8 195 275.1C199.3 262.2 208.4 246.8 213.7 240.8C222.3 231.2 231.8 228 234.1 231.9C237 237 223.6 274.2 220.2 282.6ZM315.1 328C312.8 329.2 310.6 330 309.6 329.4C308.9 329 310.6 327.4 310.6 327.4C310.6 327.4 322.5 314.6 327.2 308.8C329.9 305.4 333.1 301.4 336.5 296.9C336.5 297.3 336.5 297.8 336.5 298.2C336.5 313.5 321.7 323.8 315.1 328ZM388.3 311.3C386.6 310.1 386.9 306.1 392.6 293.6C394.8 288.7 400 280.5 408.9 272.6C409.9 275.8 410.6 278.9 410.5 281.8C410.4 301.1 396.6 308.3 388.3 311.3Z" fill="#CD6799"/>
</svg>
