<svg width="44" height="51" viewBox="0 0 44 51" fill="none" xmlns="http://www.w3.org/2000/svg">
<path d="M2.28502 26.8354C2.28502 28.3935 2.16038 28.9009 1.83987 29.2748C1.48316 29.5961 1.02006 29.7737 0.540039 29.7734L0.664681 30.6637C1.40888 30.6738 2.13099 30.4109 2.69456 29.9248C2.99779 29.555 3.22344 29.1279 3.35804 28.669C3.49265 28.2102 3.53345 27.7289 3.47802 27.2539V21.3601H2.28502V26.8354Z" fill="#4E4E4E"/>
<path d="M11.1821 26.1332C11.1821 26.8009 11.1821 27.3974 11.2355 27.9138H10.1761L10.1048 26.8543C9.88323 27.2292 9.56632 27.5387 9.18633 27.7514C8.80633 27.964 8.3768 28.0723 7.9414 28.0651C6.90866 28.0651 5.68005 27.5043 5.68005 25.2162V21.4146H6.87305V24.9758C6.87305 26.2133 7.25588 27.0413 8.33314 27.0413C8.55477 27.0437 8.77464 27.0018 8.97987 26.9181C9.1851 26.8344 9.37154 26.7105 9.52827 26.5538C9.68499 26.3971 9.80885 26.2106 9.89257 26.0054C9.97628 25.8002 10.0182 25.5803 10.0158 25.3586V21.3701H11.2088V26.0976L11.1821 26.1332Z" fill="#4E4E4E"/>
<path d="M13.4434 23.5326C13.4434 22.7047 13.4434 22.028 13.39 21.4137H14.4584L14.5118 22.5266C14.7498 22.1245 15.0925 21.7946 15.5033 21.572C15.9141 21.3493 16.3776 21.2423 16.8444 21.2624C18.4291 21.2624 19.6221 22.5889 19.6221 24.5654C19.6221 26.898 18.1887 28.0554 16.6396 28.0554C16.2431 28.0731 15.8488 27.9881 15.4947 27.8088C15.1407 27.6294 14.8389 27.3617 14.6186 27.0315V30.5927H13.4434V23.5326ZM14.6186 25.2687C14.6219 25.4303 14.6397 25.5912 14.672 25.7495C14.7731 26.1448 15.003 26.4951 15.3255 26.7451C15.648 26.995 16.0446 27.1303 16.4526 27.1294C17.708 27.1294 18.4469 26.1056 18.4469 24.6188C18.4469 23.319 17.7525 22.2061 16.4972 22.2061C16.0004 22.2468 15.5355 22.4673 15.1897 22.8262C14.8438 23.1852 14.6408 23.6579 14.6186 24.1559V25.2687Z" fill="#4E4E4E"/>
<path d="M21.7477 21.4077L23.1811 25.2449C23.3324 25.6722 23.4927 26.1886 23.5995 26.5714C23.7242 26.1797 23.8577 25.6811 24.018 25.2182L25.3178 21.4077H26.5731L24.7925 26.0372C23.9022 28.263 23.3591 29.4115 22.5401 30.1059C22.1275 30.4827 21.6245 30.7465 21.08 30.8716L20.7862 29.8744C21.1669 29.7493 21.5204 29.5529 21.8278 29.2957C22.2622 28.9418 22.6068 28.4903 22.8339 27.9781C22.8824 27.8894 22.9156 27.793 22.9318 27.6932C22.9217 27.5858 22.8946 27.4806 22.8517 27.3816L20.4301 21.3899H21.7299L21.7477 21.4077Z" fill="#4E4E4E"/>
<path d="M29.7402 19.54V21.4097H31.4495V22.3H29.7402V25.8077C29.7402 26.609 29.9717 27.0719 30.6305 27.0719C30.8645 27.0758 31.0979 27.0488 31.3249 26.9918L31.3783 27.8821C31.038 28 30.6789 28.0543 30.3189 28.0424C30.0805 28.0573 29.8417 28.0205 29.6188 27.9344C29.396 27.8484 29.1944 27.7151 29.0279 27.5438C28.6653 27.0588 28.4999 26.4543 28.565 25.8522V22.2911H27.55V21.4008H28.5828V19.816L29.7402 19.54Z" fill="#4E4E4E"/>
<path d="M33.6471 24.869C33.623 25.171 33.6647 25.4745 33.7693 25.7588C33.874 26.043 34.0391 26.3012 34.2533 26.5154C34.4674 26.7295 34.7256 26.8947 35.0098 26.9993C35.2941 27.104 35.5976 27.1456 35.8996 27.1215C36.5103 27.1351 37.117 27.0199 37.6802 26.7832L37.8849 27.6735C37.1939 27.9581 36.4508 28.0946 35.7037 28.0741C35.2682 28.1039 34.8314 28.0392 34.4232 27.8843C34.015 27.7294 33.6452 27.4881 33.339 27.1769C33.0329 26.8657 32.7977 26.4919 32.6496 26.0813C32.5014 25.6706 32.4439 25.2328 32.4808 24.7978C32.4808 22.8392 33.6471 21.29 35.5524 21.29C37.6891 21.29 38.2233 23.1597 38.2233 24.3527C38.2347 24.5365 38.2347 24.7208 38.2233 24.9046H33.6204L33.6471 24.869ZM37.1371 23.9787C37.1715 23.7407 37.1544 23.4981 37.0871 23.2672C37.0197 23.0363 36.9037 22.8226 36.7468 22.6403C36.5898 22.4581 36.3957 22.3116 36.1774 22.2108C35.959 22.1099 35.7216 22.057 35.4812 22.0557C34.992 22.0911 34.5337 22.3079 34.1961 22.6637C33.8584 23.0194 33.6659 23.4884 33.656 23.9787H37.1371Z" fill="#4E4E4E"/>
<path d="M40.0334 23.4323C40.0334 22.6666 40.0334 22.0078 39.98 21.4024H41.0483V22.6755H41.1017C41.2139 22.2826 41.4456 21.9343 41.7647 21.679C42.0837 21.4238 42.4744 21.2742 42.8824 21.251C42.9946 21.2363 43.1084 21.2363 43.2207 21.251V22.3639C43.0846 22.3482 42.9472 22.3482 42.8111 22.3639C42.407 22.3796 42.0224 22.5418 41.7291 22.8203C41.4358 23.0989 41.254 23.4746 41.2175 23.8774C41.1842 24.0596 41.1663 24.2442 41.1641 24.4294V27.8927H39.9889V23.4412L40.0334 23.4323Z" fill="#4E4E4E"/>
<path d="M39.5106 3.52559C39.5471 4.1237 39.4048 4.71915 39.1018 5.23609C38.7987 5.75304 38.3487 6.16807 37.8089 6.42833C37.2692 6.68858 36.6641 6.78227 36.0709 6.69747C35.4778 6.61266 34.9232 6.3532 34.478 5.95213C34.0328 5.55107 33.7171 5.02655 33.571 4.4454C33.425 3.86425 33.4552 3.25277 33.6579 2.68887C33.8606 2.12497 34.2265 1.63416 34.7091 1.27898C35.1917 0.923794 35.7692 0.72031 36.3678 0.694447C36.7603 0.672848 37.1532 0.729056 37.5239 0.859837C37.8947 0.990618 38.2358 1.19339 38.5279 1.4565C38.82 1.71961 39.0572 2.03786 39.2258 2.39295C39.3944 2.74804 39.4912 3.13297 39.5106 3.52559Z" fill="#767677"/>
<path d="M21.9062 38.3924C13.8936 38.3924 6.85127 35.5167 3.20996 31.27C4.6228 35.0904 7.17211 38.3863 10.5148 40.7141C13.8574 43.0418 17.833 44.2896 21.9062 44.2896C25.9795 44.2896 29.955 43.0418 33.2977 40.7141C36.6403 38.3863 39.1896 35.0904 40.6025 31.27C36.9701 35.5167 29.9545 38.3924 21.9062 38.3924Z" fill="#F37726"/>
<path d="M21.9062 10.7771C29.9189 10.7771 36.9612 13.6528 40.6025 17.8995C39.1896 14.0791 36.6403 10.7832 33.2977 8.45547C29.955 6.12773 25.9795 4.87988 21.9062 4.87988C17.833 4.87988 13.8574 6.12773 10.5148 8.45547C7.17211 10.7832 4.6228 14.0791 3.20996 17.8995C6.85127 13.6439 13.858 10.7771 21.9062 10.7771Z" fill="#F37726"/>
<path d="M10.8758 46.6566C10.9228 47.41 10.7444 48.1603 10.3635 48.8119C9.98254 49.4636 9.41622 49.9871 8.73669 50.3157C8.05716 50.6443 7.29518 50.7632 6.54784 50.6572C5.80049 50.5513 5.10161 50.2252 4.54024 49.7206C3.97887 49.216 3.58042 48.5557 3.39567 47.8238C3.21091 47.092 3.24821 46.3217 3.50281 45.6111C3.75741 44.9005 4.21778 44.2818 4.82527 43.8338C5.43277 43.3858 6.15988 43.1287 6.91397 43.0955C7.40796 43.069 7.90232 43.1402 8.36881 43.3049C8.83529 43.4696 9.26476 43.7246 9.63267 44.0553C10.0006 44.386 10.2997 44.7859 10.513 45.2323C10.7263 45.6786 10.8496 46.1626 10.8758 46.6566Z" fill="#9E9E9E"/>
<path d="M4.12061 9.80936C3.68886 9.82128 3.26322 9.70528 2.89722 9.47595C2.53122 9.24661 2.2412 8.91417 2.06364 8.52045C1.88607 8.12672 1.82889 7.68928 1.89928 7.26314C1.96966 6.837 2.16448 6.44118 2.45923 6.12547C2.75398 5.80976 3.1355 5.58825 3.55581 5.48879C3.97611 5.38933 4.41644 5.41637 4.82143 5.5665C5.22641 5.71664 5.57795 5.98317 5.83185 6.33257C6.08576 6.68197 6.23069 7.09865 6.24841 7.5302C6.26528 8.11373 6.05131 8.68037 5.65293 9.10708C5.25455 9.5338 4.70392 9.78616 4.12061 9.80936Z" fill="#616262"/>
</svg>
