<svg width="338" height="317" viewBox="0 0 338 317" fill="none" xmlns="http://www.w3.org/2000/svg">
<g filter="url(#filter0_i_118_451)">
<rect x="7.5" y="95.6567" width="323" height="213" rx="7.5" stroke="#F5F5F5" stroke-width="15"/>
<path d="M140.322 88.707V25C140.322 11.1929 151.515 -7.62939e-06 165.322 -7.62939e-06H172.678C186.485 -7.62939e-06 197.678 11.1929 197.678 25V88.707H140.322Z" fill="#F5F5F5"/>
<ellipse cx="87.5" cy="168.157" rx="22.5" ry="21" fill="#F5F5F5"/>
<path d="M45 231.157C45 211.827 60.67 196.157 80 196.157H99C118.33 196.157 134 211.827 134 231.157V247.157H45V231.157Z" fill="#F5F5F5"/>
<rect x="166" y="157.157" width="136" height="15" rx="7.5" fill="#F5F5F5"/>
<rect x="166" y="192.157" width="136" height="15" rx="7.5" fill="#F5F5F5"/>
<rect x="166" y="227.157" width="136" height="15" rx="7.5" fill="#F5F5F5"/>
</g>
<defs>
<filter id="filter0_i_118_451" x="0" y="0" width="338" height="320.157" filterUnits="userSpaceOnUse" color-interpolation-filters="sRGB">
<feFlood flood-opacity="0" result="BackgroundImageFix"/>
<feBlend mode="normal" in="SourceGraphic" in2="BackgroundImageFix" result="shape"/>
<feColorMatrix in="SourceAlpha" type="matrix" values="0 0 0 0 0 0 0 0 0 0 0 0 0 0 0 0 0 0 127 0" result="hardAlpha"/>
<feOffset dy="4"/>
<feGaussianBlur stdDeviation="2"/>
<feComposite in2="hardAlpha" operator="arithmetic" k2="-1" k3="1"/>
<feColorMatrix type="matrix" values="0 0 0 0 0 0 0 0 0 0 0 0 0 0 0 0 0 0 0.25 0"/>
<feBlend mode="normal" in2="shape" result="effect1_innerShadow_118_451"/>
</filter>
</defs>
</svg>
