<svg width="135" height="63" viewBox="0 0 135 63" fill="none" xmlns="http://www.w3.org/2000/svg">
<path d="M43.4895 46.6816L53.3524 47.4083V55.8358C53.3524 55.8358 34.9237 73.9931 8.07081 52.495H17.2215L18.2356 44.2137C18.2356 44.2137 28.6786 54.8165 43.4895 46.6816Z" fill="#0D2C40"/>
<path d="M10.0896 7.748C10.0896 7.748 -9.9522 26.415 6.45765 50.3149L15.6177 51.1879L16.4903 42.3263C16.4903 42.3263 8.07081 28.5242 18.9478 17.6288L9.19341 16.8739L10.0896 7.748Z" fill="#0D2C40"/>
<path d="M12.2688 6.44093C12.2688 6.44093 37.268 -9.6827 56.2721 9.78173L47.8478 9.20134L46.9752 18.6386C46.9752 18.6386 37.3906 7.02132 21.4194 16.0292L11.6886 15.5951L12.2688 6.44093Z" fill="#0D2C40"/>
<path d="M49.1544 20.9697L49.7346 11.2351L58.5928 12.108L85.3136 41.8874H76.1677L75.2951 50.1687L49.1544 20.9697Z" fill="#0D2C40"/>
<path d="M45.9611 45.0867L79.7949 7.748L88.7993 8.62095L88.2192 17.7751L54.9655 54.8165L55.107 45.2282L45.9611 45.0867Z" fill="#02D35F"/>
<path d="M81.1015 6.40318L90.4691 7.1676L89.8182 16.1047C89.8182 16.1047 103.648 7.27613 113.78 16.6474L123.685 17.0815L124.577 8.38029C124.577 8.38029 109.096 -9.07872 81.1015 6.40318Z" fill="#02D35F"/>
<path d="M115.195 18.063L125.1 18.6434L125.864 9.89026C125.864 9.89026 147.538 34.045 124.119 54.8165L114.539 54.1512L115.412 44.242C115.412 44.242 128.374 29.7228 115.195 18.063Z" fill="#02D35F"/>
<path d="M87.639 44.2137L77.6346 43.3408L77.0733 52.1694C77.0733 52.1694 94.8275 72.653 121.619 56.3076L112.468 55.5668L113.341 46.087C113.341 46.087 101.686 55.4347 87.639 44.2137Z" fill="#02D35F"/>
<path d="M100.299 28.9536V32.2567C100.27 32.3852 100.256 32.5166 100.257 32.6483C100.256 32.7816 100.27 32.9145 100.299 33.0447V38.3673H97.8274V28.93L100.299 28.9536Z" fill="#0D2C40"/>
<path d="M102.473 28.9536C101.659 29.059 100.899 29.4172 100.299 29.9776C99.8853 30.2986 99.5429 30.7023 99.2936 31.1629C99.0443 31.6235 98.8935 32.131 98.8509 32.653C98.8874 33.1986 99.0346 33.731 99.2836 34.2178C99.5325 34.7045 99.878 35.1355 100.299 35.4842C100.825 35.9856 101.505 36.2934 102.228 36.3572C104.525 36.4138 105.657 34.4367 105.657 32.6578C105.657 30.8788 104.252 28.8498 102.473 28.9536ZM101.723 34.2904C101.382 34.2753 101.055 34.1441 100.798 33.9185C100.541 33.6929 100.368 33.3864 100.308 33.0494C100.28 32.9192 100.266 32.7863 100.266 32.653C100.266 32.5213 100.28 32.39 100.308 32.2614C100.368 31.9244 100.541 31.6179 100.798 31.3923C101.055 31.1667 101.382 31.0355 101.723 31.0204C102.131 31.0583 102.509 31.247 102.785 31.5494C103.06 31.8518 103.213 32.2463 103.213 32.6554C103.213 33.0645 103.06 33.4589 102.785 33.7614C102.509 34.0638 102.131 34.2525 101.723 34.2904ZM110.572 31.7707C110.214 31.6574 108.888 31.4498 108.888 30.9496C108.888 30.6665 109.294 30.6334 109.492 30.6429C110.058 30.6429 110.907 31.3177 111.379 31.1903C111.799 31.0817 112.167 29.9964 112.322 29.6284C111.131 28.9482 109.743 28.6951 108.388 28.9111C108.054 28.975 107.737 29.1106 107.459 29.3087C107.182 29.5067 106.951 29.7626 106.782 30.0585C106.613 30.3545 106.51 30.6836 106.481 31.0231C106.451 31.3627 106.495 31.7046 106.61 32.0255C107.209 33.5779 109.049 32.9692 109.978 33.9129C110.36 34.3093 109.572 34.4886 109.313 34.4791C108.515 34.3607 107.752 34.071 107.077 33.6298C106.846 33.9601 106.134 34.7481 106.219 35.1586C106.304 35.5692 107.242 35.8759 107.634 35.9986C108.945 36.4232 110.968 36.5837 111.954 35.3899C113.185 33.9554 112.11 32.2708 110.572 31.7707ZM91.3794 26.3395C90.3533 26.3395 89.3501 26.6439 88.4969 27.2142C87.6436 27.7846 86.9786 28.5952 86.5859 29.5437C86.1932 30.4921 86.0904 31.5358 86.2906 32.5426C86.4908 33.5495 86.985 34.4743 87.7106 35.2002C88.4362 35.9262 89.3607 36.4205 90.3672 36.6208C91.3737 36.8211 92.4169 36.7183 93.365 36.3254C94.3131 35.9325 95.1234 35.2673 95.6935 34.4137C96.2637 33.5601 96.568 32.5566 96.568 31.53C96.568 30.1534 96.0213 28.8332 95.0483 27.8597C94.0752 26.8863 92.7555 26.3395 91.3794 26.3395ZM91.3794 34.1772C90.8535 34.1762 90.3396 34.0193 89.9028 33.7264C89.4659 33.4334 89.1257 33.0174 88.925 32.531C88.7244 32.0446 88.6724 31.5097 88.7756 30.9938C88.8788 30.4778 89.1325 30.0041 89.5047 29.6323C89.877 29.2606 90.351 29.0076 90.8669 28.9053C91.3828 28.803 91.9175 28.856 92.4033 29.0576C92.8891 29.2591 93.3043 29.6002 93.5964 30.0378C93.8885 30.4753 94.0445 30.9897 94.0445 31.5158C94.0445 31.8661 93.9753 32.213 93.8411 32.5365C93.7068 32.86 93.51 33.1538 93.2619 33.401C93.0139 33.6483 92.7195 33.8441 92.3957 33.9773C92.0718 34.1105 91.7249 34.1784 91.3747 34.1772H91.3794Z" fill="#0D2C40"/>
<path d="M42.2395 28.8356H39.2821L42.4093 37.0178H43.7583V33.5307L42.2395 28.8356ZM45.2819 28.8498H48.2393L45.1073 37.0319H43.7583V33.5449L45.2819 28.8498ZM27.8815 27.6843C26.8883 26.9943 25.7357 26.5688 24.5325 26.448C22.9383 26.297 21.2308 26.4905 19.7544 26.4905V37.0083H19.8251C20.1082 37.0414 20.3912 37.0697 20.6789 37.0886C21.8126 37.1825 22.9525 37.1731 24.0844 37.0603C26.2495 36.8196 27.6409 36.1165 28.4947 35.2011C29.2512 34.3492 29.6778 33.2545 29.6975 32.1151V31.7329C29.6786 30.2371 29.2494 28.7318 27.8815 27.6843ZM25.4759 34.1111C24.5844 34.6113 23.4996 34.4886 22.5185 34.4886V29.0102C23.5609 29.0102 24.7354 28.8734 25.6504 29.5151C27.1692 30.5863 27.1126 33.1862 25.4618 34.1111H25.4759ZM37.9849 34.9321C37.7444 34.7292 37.4378 34.3848 37.1123 34.3282C36.5935 34.2574 35.9473 34.9557 35.3718 35.0124C34.4756 35.102 33.8294 34.4839 33.4851 33.7383H38.9377C38.9377 32.2284 38.8104 30.6382 37.5227 29.6001C35.1313 27.6465 31.2069 29.0905 30.7682 32.1717C30.2965 35.4182 32.8483 37.5132 35.9567 37.1074C36.7275 36.9985 37.451 36.671 38.0415 36.1637C38.2538 35.975 38.5651 35.7154 38.4095 35.4087C38.2983 35.2252 38.1544 35.0637 37.9849 34.9321ZM36.2444 32.2567H33.4615C33.5216 31.9314 33.6937 31.6374 33.9479 31.4259C34.2021 31.2143 34.5223 31.0984 34.853 31.0984C35.1836 31.0984 35.5039 31.2143 35.758 31.4259C36.0122 31.6374 36.1843 31.9314 36.2444 32.2567Z" fill="#02D35F"/>
</svg>
