<svg width="457" height="405" viewBox="0 0 457 405" fill="none" xmlns="http://www.w3.org/2000/svg">
<g filter="url(#filter0_i_117_450)">
<path d="M225.1 10.5H439.41C441.561 10.5 442.027 10.5114 442.333 10.5453C445.824 10.9307 448.58 13.6865 448.965 17.177C448.999 17.4838 449.01 17.9497 449.01 20.1V153.534C449.01 155.685 448.999 156.15 448.965 156.457C448.58 159.948 445.824 162.704 442.333 163.089C442.027 163.123 441.561 163.134 439.41 163.134H335.326L335.203 163.134C334.595 163.134 334.06 163.134 333.523 163.159C329.136 163.367 324.906 164.855 321.354 167.438C320.919 167.754 320.502 168.089 320.028 168.469L319.932 168.547L304.469 180.953C303.008 182.125 302.693 182.366 302.457 182.519C299.816 184.238 296.382 184.122 293.862 182.229C293.638 182.06 293.339 181.798 291.961 180.53L280.114 169.63L280.012 169.537C279.518 169.082 279.084 168.683 278.629 168.306C274.902 165.219 270.28 163.417 265.448 163.165C264.858 163.134 264.267 163.134 263.595 163.134L263.458 163.134H225.1C222.95 163.134 222.484 163.123 222.177 163.089C218.686 162.704 215.931 159.948 215.545 156.457C215.511 156.15 215.5 155.685 215.5 153.534V20.1C215.5 17.9497 215.511 17.4838 215.545 17.177C215.931 13.6865 218.686 10.9307 222.177 10.5453C222.484 10.5114 222.95 10.5 225.1 10.5Z" stroke="#F0F0F0" stroke-width="15"/>
<ellipse cx="275.274" cy="86.817" rx="16.5429" ry="15.44" fill="#F0F0F0"/>
<ellipse cx="331.888" cy="86.817" rx="16.5429" ry="15.44" fill="#F0F0F0"/>
<ellipse cx="388.501" cy="86.817" rx="16.5429" ry="15.44" fill="#F0F0F0"/>
</g>
<g filter="url(#filter1_i_117_450)">
<path d="M396.814 320.332L334.129 257.638C321.644 245.204 300.965 245.584 288.043 258.506L256.464 290.085C254.471 288.981 252.405 287.833 250.233 286.615C230.291 275.565 202.993 260.419 174.267 231.673C145.461 202.869 130.296 175.528 119.216 155.571C118.04 153.456 116.922 151.42 115.818 149.484L137.014 128.316L147.433 117.883C160.376 104.94 160.735 84.2663 148.272 71.7977L85.5849 9.09619C73.1303 -3.35836 52.4429 -2.97967 39.4994 9.96376L21.8314 27.7319L22.3183 28.2128C16.3956 35.7705 11.4406 44.4903 7.76195 53.8913C4.3638 62.8395 2.24797 71.381 1.28022 79.9345C-6.99477 148.559 24.362 211.272 109.464 296.382C227.099 414.009 321.903 405.125 325.99 404.688C334.904 403.627 343.436 401.497 352.113 398.127C361.434 394.484 370.148 389.543 377.698 383.634L378.084 383.971L395.983 366.445C408.898 353.504 409.271 332.83 396.814 320.332ZM382.058 352.508L374.169 360.382L371.028 363.402C366.081 368.184 357.517 374.903 345.013 379.793C337.914 382.526 330.915 384.282 323.794 385.129C322.899 385.215 233.731 392.823 123.373 282.473C29.5394 188.643 14.5022 134.575 20.8056 82.2086C21.595 75.268 23.3362 68.2834 26.1192 60.9841C31.0521 48.4074 37.7643 39.8519 42.5109 34.8969L53.4166 23.883C58.6721 18.6134 66.869 18.2107 71.6737 23.0154L134.359 85.7009C139.156 90.5116 138.777 98.7085 133.514 103.994L91.179 146.287L95.0861 152.863C97.258 156.527 99.5542 160.635 102.007 165.097C113.652 186.099 129.585 214.847 160.354 245.588C191.044 276.294 219.75 292.213 240.688 303.828C245.212 306.33 249.343 308.633 253.05 310.841L259.64 314.748L301.947 272.427C307.224 267.171 315.449 266.783 320.254 271.573L382.911 334.245C387.702 339.048 387.321 347.244 382.058 352.508Z" fill="#F0F0F0"/>
</g>
<defs>
<filter id="filter0_i_117_450" x="208" y="3" width="248.51" height="192.232" filterUnits="userSpaceOnUse" color-interpolation-filters="sRGB">
<feFlood flood-opacity="0" result="BackgroundImageFix"/>
<feBlend mode="normal" in="SourceGraphic" in2="BackgroundImageFix" result="shape"/>
<feColorMatrix in="SourceAlpha" type="matrix" values="0 0 0 0 0 0 0 0 0 0 0 0 0 0 0 0 0 0 127 0" result="hardAlpha"/>
<feOffset dy="4"/>
<feGaussianBlur stdDeviation="2"/>
<feComposite in2="hardAlpha" operator="arithmetic" k2="-1" k3="1"/>
<feColorMatrix type="matrix" values="0 0 0 0 0 0 0 0 0 0 0 0 0 0 0 0 0 0 0.25 0"/>
<feBlend mode="normal" in2="shape" result="effect1_innerShadow_117_450"/>
</filter>
<filter id="filter1_i_117_450" x="0" y="0" width="409.918" height="409" filterUnits="userSpaceOnUse" color-interpolation-filters="sRGB">
<feFlood flood-opacity="0" result="BackgroundImageFix"/>
<feBlend mode="normal" in="SourceGraphic" in2="BackgroundImageFix" result="shape"/>
<feColorMatrix in="SourceAlpha" type="matrix" values="0 0 0 0 0 0 0 0 0 0 0 0 0 0 0 0 0 0 127 0" result="hardAlpha"/>
<feOffset dx="4" dy="4"/>
<feGaussianBlur stdDeviation="5"/>
<feComposite in2="hardAlpha" operator="arithmetic" k2="-1" k3="1"/>
<feColorMatrix type="matrix" values="0 0 0 0 0 0 0 0 0 0 0 0 0 0 0 0 0 0 0.25 0"/>
<feBlend mode="normal" in2="shape" result="effect1_innerShadow_117_450"/>
</filter>
</defs>
</svg>
