<svg width="88" height="49" viewBox="0 0 88 49" fill="none" xmlns="http://www.w3.org/2000/svg">
<path d="M64.9356 0.499729L64.8904 0.409489C64.8682 0.387317 64.8454 0.364258 64.8004 0.364258L64.7099 0.387095C64.6649 0.432104 64.6423 0.45472 64.6423 0.499729L62.724 35.2288L63.0175 35.1837L64.868 1.40013L67.0797 5.03368H67.0571C68.727 9.9532 69.4266 15.1889 69.1559 20.7403L69.2911 20.9434L71.4801 24.8249L71.6154 24.9601C74.978 27.9164 78.7466 29.9024 82.9218 30.9179L83.9373 32.5653L84.0725 32.6103L84.0951 32.5653L64.8897 1.15163L64.935 0.497112M64.2587 12.7538C66.6282 17.6059 67.4856 24.9402 66.854 34.7571L76.0842 33.6287L64.2587 12.7538ZM85.2911 34.0799C86.2387 33.9672 86.848 33.7641 87.1189 33.4707L38.8024 39.3609C38.825 41.3693 39.7276 42.9491 41.4879 44.0774C41.9617 44.4159 42.4583 44.6641 42.9095 44.8223C43.3383 44.326 43.8124 43.9648 44.3766 43.6262H44.3988C49.454 40.5572 56.969 40.0832 66.8985 42.182L67.0116 42.2042C68.0949 42.4299 69.1778 42.7009 70.1937 43.0167C70.4868 43.0618 70.7352 42.9716 70.9383 42.791C71.2997 42.5202 71.7509 42.3171 72.3602 42.1818V42.1592C73.9625 39.3156 76.1287 37.2169 78.837 35.8403C80.7101 34.9151 82.8766 34.3056 85.2911 34.0799ZM62.0921 34.96L64.3037 1.06401C61.0992 13.4309 55.9538 24.9854 48.8902 35.7049L62.0921 34.96ZM49.6574 7.65375L49.5671 7.60851L49.4769 7.63113L49.4316 7.74376L47.6038 37.0815L47.8743 37.0589L49.7024 7.74372L49.6574 7.65375ZM47.0852 36.4496L49.0259 7.83423L38.8028 37.3298L47.0852 36.4496Z" fill="#CCCCCC"/>
<path d="M2.13056 39.4673H5.1219C6.02071 39.4673 6.6807 39.7232 7.10193 40.2348C7.52319 40.7465 7.65962 41.4596 7.51177 42.3741C7.45116 42.7493 7.343 43.0936 7.18724 43.4072C7.03148 43.7207 6.82584 44.0073 6.56984 44.2665C6.26569 44.5784 5.92521 44.8019 5.5482 44.9367C5.17119 45.0716 4.68904 45.139 4.10192 45.139H2.76952L2.438 47.1903H0.882324L2.13056 39.4673ZM3.48864 40.6891L2.9649 43.9285H3.91109C4.53827 43.9285 5.0031 43.8004 5.30571 43.5441C5.60809 43.2876 5.80755 42.861 5.90408 42.264C5.99714 41.6882 5.94304 41.2819 5.74223 41.0446C5.54128 40.8076 5.14536 40.6891 4.5543 40.6891H3.48864ZM9.25802 37.416H10.802L10.4705 39.4673H11.844C12.7087 39.4673 13.3076 39.6314 13.6416 39.9585C13.9758 40.2862 14.084 40.8139 13.9663 41.5424L13.3849 45.139H11.8174L12.3707 41.7157C12.4336 41.3265 12.4031 41.0619 12.2792 40.9216C12.1551 40.7815 11.896 40.7112 11.5016 40.7112H10.2693L9.55375 45.139H8.00954L9.25802 37.416ZM15.6481 39.4673H18.6394C19.5384 39.4673 20.1982 39.7232 20.6194 40.2348C21.0406 40.7465 21.1771 41.4596 21.0296 42.3741C20.969 42.7493 20.8607 43.0936 20.7052 43.4072C20.5492 43.7208 20.3433 44.0073 20.0877 44.2665C19.7834 44.5784 19.443 44.8019 19.066 44.9367C18.689 45.0716 18.2069 45.139 17.6196 45.139H16.2872L15.9556 47.1903H14.4001L15.6481 39.4673ZM17.0064 40.6891L16.4828 43.9285H17.429C18.0562 43.9285 18.5209 43.8004 18.8236 43.5441C19.1263 43.2877 19.3257 42.861 19.4222 42.264C19.5152 41.6882 19.4612 41.2819 19.2602 41.0446C19.0593 40.8076 18.6634 40.6891 18.0725 40.6891H17.0064Z" fill="#6C78AF"/>
<path d="M23.6591 35.7748H26.6512L27.9655 42.9557L31.6011 35.7748H34.5818L33.0696 45.1327H31.072L32.4148 37.8437L28.749 45.1327H26.5843L25.2076 37.7671L24.2216 45.1327H22.1467L23.6591 35.7748ZM38.1726 43.6183H39.6832L40.5489 38.2603H42.4268L41.3459 44.9482C41.1992 45.8574 40.8705 46.5309 40.3604 46.9686C39.8504 47.406 39.1425 47.6249 38.2374 47.6249H34.5551L34.7801 46.2328H38.1392C38.4996 46.2328 38.7903 46.1485 39.011 45.98C39.2315 45.8114 39.368 45.5676 39.4196 45.2476L39.4383 45.1325H37.7762C36.7131 45.1325 35.988 44.9298 35.6013 44.5245C35.2143 44.1192 35.0976 43.4433 35.2503 42.4968L35.9354 38.2602H37.792L37.1298 42.3567C37.0461 42.875 37.0712 43.2147 37.2059 43.3761C37.3403 43.5375 37.6625 43.6183 38.1726 43.6183ZM47.4842 35.7748H49.6464L52.2668 45.1327H49.9992L49.4692 42.9053H45.2575L44.0339 45.1327H41.8714L47.4842 35.7748ZM48.1859 37.633L46.1864 41.2347H49.0736L48.1859 37.633ZM59.3462 45.1327H55.7389C54.6488 45.1327 53.8484 44.8227 53.3372 44.2028C52.8264 43.5829 52.6608 42.7188 52.8399 41.6106C52.9134 41.156 53.0445 40.7392 53.2334 40.359C53.4223 39.9789 53.6718 39.6319 53.982 39.3176C54.3507 38.9398 54.7646 38.6691 55.2243 38.5056C55.6839 38.3421 56.2673 38.2604 56.975 38.2604H58.586L58.9876 35.7749H60.8587L59.3462 45.1327ZM57.7135 43.6591L58.3469 39.7407H57.2112C56.4496 39.7407 55.8845 39.8948 55.5154 40.2026C55.1468 40.5107 54.904 41.0236 54.7881 41.7413C54.6754 42.438 54.742 42.9319 54.9877 43.2226C55.2335 43.5134 55.7129 43.6591 56.4259 43.6591H57.7135ZM62.0893 38.2603H69.3003C70.3459 38.2603 71.0675 38.4578 71.4649 38.8523C71.8621 39.247 71.9893 39.8878 71.8462 40.7747L71.1416 45.1327H69.2496L69.9158 41.0103C69.9978 40.5049 69.9725 40.1716 69.8407 40.01C69.7084 39.8487 69.3969 39.7679 68.9055 39.7679H67.8523L66.9853 45.1327H65.0651L65.9322 39.7679H63.7376L62.8705 45.1327H60.9786L62.0893 38.2603ZM76.0272 37.4793H74.0579L74.3333 35.7748H76.3027L76.0272 37.4793ZM74.7902 45.1327H72.8208L73.9317 38.2603H75.901L74.7902 45.1327ZM77.5251 38.2603H81.0583C82.1261 38.2603 82.8572 38.4546 83.2511 38.8428C83.6452 39.2311 83.7698 39.8751 83.6244 40.7747L82.9202 45.1327H81.0421L81.7106 40.9976C81.7936 40.4836 81.765 40.1502 81.6248 39.9976C81.4845 39.8447 81.1658 39.7682 80.6694 39.7682H79.1592L78.2921 45.1329H76.4143L77.5251 38.2603Z" fill="#F89C0E"/>
</svg>
