<svg width="62" height="64" viewBox="0 0 62 64" fill="none" xmlns="http://www.w3.org/2000/svg">
<path d="M26.733 34.453L35.373 29.44L43.906 34.453L35.373 39.36L26.733 34.56V34.453ZM0.812988 19.627L35.373 0L61.08 14.613L52.547 29.44L35.374 19.627L9.45399 34.347L0.812988 19.627Z" fill="#F6BD3A"/>
<path d="M26.733 44.267L35.266 39.36L43.906 34.453V44.266L35.373 49.173V58.986L26.733 64V44.267ZM26.733 34.453L18.093 29.546L9.45299 34.346V24.533L35.373 9.813V29.44L26.733 34.453ZM52.44 24.533V19.626L61.08 14.613L61.187 24.426L52.547 29.439L52.44 24.533Z" fill="#EB8C23"/>
<path d="M18.093 58.773V29.547L26.626 24.747L26.733 34.453L35.373 39.254V49.173L26.733 44.587L26.733 64L18.093 58.773ZM5.07999 31.787L0.812988 29.227V19.627L9.45299 24.533V34.346L5.07999 31.787ZM35.374 19.627L35.373 9.813L52.44 19.626L52.547 29.439L35.374 19.626V19.627Z" fill="#E35A2B"/>
</svg>
