<svg xmlns="http://www.w3.org/2000/svg" width="768" height="768" viewBox="0 0 768 768" version="1.1"><path d="" stroke="none" fill="#945494" fill-rule="evenodd"/><path d="M 355.500 0.625 C 77.228 28.698, -83.497 314.574, 41.856 558.492 C 178.542 824.462, 550.197 840.316, 710.142 587 C 741.490 537.352, 766.986 459.464, 766.999 413.309 C 766.999 411.004, 767.450 408.840, 768 408.500 C 768.624 408.114, 769 398.303, 769 382.382 C 769 365.637, 768.657 357.094, 768 357.500 C 767.399 357.871, 767 356.580, 767 354.267 C 767 285.974, 724.966 188.505, 668.582 126.054 C 590.597 39.677, 465.436 -10.466, 355.500 0.625 M 355.500 52.614 C 353.850 52.817, 348.450 53.468, 343.500 54.061 C 293.734 60.016, 244.443 78.045, 202 105.818 C 195.675 109.956, 190.275 113.603, 190 113.921 C 189.725 114.240, 185.900 117.194, 181.500 120.486 C 177.100 123.778, 173.275 126.703, 173 126.986 C 172.725 127.269, 169.350 130.192, 165.500 133.483 C 156.526 141.153, 141.153 156.526, 133.483 165.500 C 130.192 169.350, 127.250 172.725, 126.945 173 C 122.954 176.597, 102.397 206.642, 94.789 220 C 72.260 259.549, 55.978 310.762, 53.457 350 C 53.121 355.225, 52.644 360.130, 52.397 360.900 C 51.842 362.630, 51.852 405.553, 52.408 409 C 52.630 410.375, 53.095 414.954, 53.441 419.176 C 56.717 459.155, 71.862 506.431, 94.641 547.787 C 98.143 554.145, 112.684 576.931, 113.921 578 C 114.240 578.275, 117.194 582.100, 120.486 586.500 C 123.778 590.900, 126.703 594.725, 126.986 595 C 127.269 595.275, 130.175 598.650, 133.445 602.500 C 185.445 663.727, 273.720 709.492, 349.500 714.512 C 354.450 714.840, 359.555 715.328, 360.844 715.597 C 363.897 716.233, 404.103 716.233, 407.156 715.597 C 408.445 715.328, 413.550 714.840, 418.500 714.512 C 457.545 711.926, 508.688 695.616, 548 673.214 C 561.367 665.597, 591.406 645.043, 595 641.055 C 595.275 640.750, 598.649 637.800, 602.497 634.500 C 611.467 626.809, 626.809 611.467, 634.500 602.497 C 637.800 598.649, 640.731 595.275, 641.014 595 C 641.297 594.725, 644.222 590.900, 647.514 586.500 C 650.806 582.100, 653.760 578.275, 654.079 578 C 654.397 577.725, 658.044 572.325, 662.182 566 C 733.953 456.318, 734.393 313.541, 663.299 203.586 C 659.356 197.488, 642.505 174.322, 641.050 173 C 640.748 172.725, 637.800 169.354, 634.500 165.509 C 626.632 156.342, 611.279 140.973, 602.500 133.477 C 598.650 130.190, 595.275 127.269, 595 126.986 C 594.725 126.703, 590.900 123.778, 586.500 120.486 C 582.100 117.194, 578.275 114.270, 578 113.989 C 576.549 112.507, 561.278 102.582, 553 97.741 C 513.907 74.880, 476.650 61.936, 428 54.313 C 419.123 52.922, 363.572 51.620, 355.500 52.614 M 398 98.708 C 389.833 101.185, 383.909 107.880, 365.453 135.500 C 347.487 162.385, 304.630 226.115, 290.135 247.500 C 277.830 265.653, 256.023 298.058, 227.549 340.500 C 215.003 359.200, 203.285 376.525, 201.507 379 C 185.629 401.111, 190.549 423.579, 213.003 431.501 C 217.906 433.231, 208.724 433, 272.585 433 C 332.649 433, 327.881 431.286, 325.460 452 C 324.577 459.560, 323.978 465.060, 322.522 479 C 321.689 486.975, 320.553 497.550, 319.998 502.500 C 319.443 507.450, 318.317 518.250, 317.495 526.500 C 316.674 534.750, 315.800 543.300, 315.552 545.500 C 315.305 547.700, 314.619 554, 314.027 559.500 C 313.435 565, 312.756 571.300, 312.517 573.500 C 312.279 575.700, 311.822 580.200, 311.503 583.500 C 311.183 586.800, 310.722 591.075, 310.477 593 C 310.233 594.925, 309.788 598.975, 309.488 602 C 309.188 605.025, 308.112 615.189, 307.095 624.586 C 303.585 657.034, 312.640 672.002, 335.779 671.999 C 352.098 671.997, 352.054 672.042, 395.552 609.500 C 414.678 582, 451.292 529.575, 476.916 493 C 502.540 456.425, 524.179 425.520, 525.003 424.322 C 525.826 423.124, 536.130 408.499, 547.901 391.822 C 559.671 375.145, 570.357 359.475, 571.647 357 C 580.607 339.811, 571.972 319.217, 553.558 313.861 C 551.876 313.372, 520.216 312.983, 483.202 312.998 C 415.905 313.024, 415.905 313.024, 416.431 309.762 C 416.720 307.968, 417.671 300.200, 418.545 292.500 C 419.419 284.800, 420.326 277.150, 420.561 275.500 C 420.795 273.850, 422.346 260.575, 424.005 246 C 425.665 231.425, 427.236 217.925, 427.496 216 C 427.756 214.075, 428.662 206.650, 429.510 199.500 C 430.357 192.350, 431.257 184.925, 431.511 183 C 431.764 181.075, 432.406 175.675, 432.936 171 C 433.466 166.325, 434.856 154.205, 436.023 144.068 C 437.734 129.207, 437.928 124.770, 437.020 121.167 C 432.514 103.270, 415.415 93.429, 398 98.708" stroke="none" fill="#944c94" fill-rule="evenodd"/></svg>