<svg width="98" height="194" viewBox="0 0 98 194" fill="none" xmlns="http://www.w3.org/2000/svg">
<path d="M83.1504 1.79374C80.1045 3.58049 75.0355 8.63921 68.9888 15.976L74.5298 26.3838C78.4298 20.8561 82.3861 15.8644 86.3311 11.6432C86.6458 11.3082 86.7919 11.1518 86.7919 11.1518C86.6458 11.3082 86.4772 11.4868 86.3311 11.6432C85.0386 13.0502 81.116 17.6064 75.2041 26.6072C80.9025 26.328 89.5905 25.1666 96.7837 23.9605C98.9192 12.1234 94.7044 6.76313 94.7044 6.76313C94.7044 6.76313 89.3545 -1.83559 83.1279 1.83841L83.1504 1.79374Z" fill="url(#paint0_linear_17_112)"/>
<path d="M64.493 89.2214C63.7849 89.3443 63.0656 89.4783 62.3126 89.6011C62.3126 89.6011 62.3013 89.6011 62.3013 89.6123C62.6835 89.5564 63.0544 89.5006 63.4253 89.4448C63.7737 89.3666 64.1334 89.2996 64.493 89.2214Z" fill="#BD202E"/>
<path d="M64.493 89.2214C63.7849 89.3443 63.0656 89.4783 62.3126 89.6011C62.3126 89.6011 62.3013 89.6011 62.3013 89.6123C62.6835 89.5564 63.0544 89.5006 63.4253 89.4448C63.7737 89.3666 64.1334 89.2996 64.493 89.2214Z" fill="black"/>
<path d="M66.4037 80.176C66.3925 80.176 66.3925 80.176 66.3925 80.1872C66.5049 80.176 66.6285 80.1537 66.7409 80.1313C67.2129 80.0643 67.6738 79.9862 68.1233 79.8745C67.5614 79.975 66.9994 80.0755 66.4037 80.176Z" fill="#BD202E"/>
<path d="M66.4037 80.176C66.3925 80.176 66.3925 80.176 66.3925 80.1872C66.5049 80.176 66.6285 80.1537 66.7409 80.1313C67.2129 80.0643 67.6738 79.9862 68.1233 79.8745C67.5614 79.975 66.9994 80.0755 66.4037 80.176Z" fill="black"/>
<path d="M58.199 53.2632C59.8849 50.1252 61.5933 47.0654 63.3129 44.0949C65.0999 40.9905 66.9207 37.9977 68.7527 35.0942C68.8539 34.9267 68.9775 34.748 69.0787 34.5805C70.8882 31.7329 72.7202 28.9858 74.5522 26.3727L69.0112 15.9649C68.5954 16.4674 68.1795 16.9811 67.7524 17.5171C66.1452 19.5049 64.493 21.6266 62.7846 23.8936C60.8627 26.4397 58.8958 29.1645 56.884 32.0232C55.0407 34.6587 53.1525 37.417 51.2643 40.2869C49.6571 42.7214 48.0611 45.2228 46.4651 47.7913C46.4089 47.8806 46.3527 47.9811 46.2965 48.0816L53.5234 62.2639C55.052 59.1929 56.6255 56.189 58.199 53.2632Z" fill="url(#paint1_linear_17_112)"/>
<path d="M25.2677 133.108C24.3123 135.71 23.3457 138.379 22.3904 141.093C22.3791 141.126 22.3679 141.171 22.3454 141.205C22.2106 141.584 22.0644 141.975 21.9408 142.355C21.2889 144.186 20.727 145.839 19.4344 149.58C21.5587 150.54 23.2671 153.086 24.8855 155.968C24.7169 152.986 23.4806 150.183 21.1091 148.016C31.5954 148.486 40.6656 145.85 45.2737 138.234C45.6896 137.553 46.0717 136.849 46.4201 136.079C44.2959 138.759 41.6546 139.887 36.6981 139.619C44.0037 136.369 47.6565 133.254 50.8597 128.117C51.624 126.888 52.377 125.559 53.1413 124.074C46.7573 130.585 39.4292 132.438 31.5617 131.031L25.7172 131.668C25.5262 132.159 25.3576 132.639 25.1665 133.131L25.2677 133.108Z" fill="url(#paint2_linear_17_112)"/>
<path d="M28.0775 120.154C29.3363 116.916 30.6401 113.633 31.9663 110.327C33.2476 107.156 34.5514 103.962 35.9001 100.768C37.2488 97.5744 38.62 94.3471 40.0137 91.131C41.4299 87.859 42.891 84.5982 44.3858 81.3486C45.8582 78.1324 47.3418 74.9386 48.8591 71.7895C49.3986 70.6504 49.9605 69.5114 50.5113 68.3835C51.4666 66.4292 52.4332 64.4862 53.411 62.5654C53.4672 62.4649 53.5122 62.3532 53.5684 62.2527L46.3415 48.0704C46.2291 48.2603 46.1054 48.4613 45.9818 48.64C44.2959 51.3759 42.6212 54.1677 40.9803 57.0153C39.3169 59.8965 37.6871 62.8334 36.0912 65.815C34.7537 68.3277 33.4387 70.8514 32.1461 73.4199C31.8876 73.9336 31.6404 74.4584 31.3819 74.9721C29.8084 78.1994 28.3922 81.2927 27.0997 84.2967C25.6386 87.6803 24.3573 90.9188 23.2446 93.9898C22.5028 96.011 21.8397 97.9541 21.2215 99.8302C20.7157 101.427 20.2437 103.035 19.7716 104.632C18.6926 108.384 17.7598 112.136 16.9955 115.911L24.2561 130.205C25.2115 127.659 26.2005 125.068 27.2121 122.455C27.5155 121.707 27.7853 120.97 28.0775 120.255V120.154Z" fill="url(#paint3_linear_17_112)"/>
<path d="M16.8381 116.358C15.9278 120.914 15.2759 125.448 14.9499 129.982L14.9162 130.451C12.6459 126.844 6.58784 123.326 6.59908 123.359C10.9487 129.613 14.2418 135.867 14.7251 141.897C12.3986 142.366 9.21785 141.685 5.54258 140.345C9.3752 143.851 12.2525 144.812 13.3877 145.08C9.8585 145.303 6.19447 147.704 2.49672 150.473C7.90285 148.285 12.275 147.413 15.422 148.117C10.4542 162.076 5.48639 177.487 0.473633 193.902C2.00219 193.456 2.91257 192.428 3.41834 191.055C4.30625 188.095 10.1844 168.609 19.3782 143.148C19.648 142.422 19.9065 141.685 20.1762 140.959C20.2437 140.747 20.3223 140.546 20.401 140.356C21.3676 137.676 22.3904 134.94 23.4244 132.148C23.6604 131.511 23.8965 130.875 24.1437 130.238C24.1437 130.227 24.155 130.216 24.155 130.205L16.8831 115.911C16.8606 116.056 16.8269 116.224 16.7932 116.391L16.8381 116.358Z" fill="url(#paint4_linear_17_112)"/>
<path d="M54.6024 63.4253C54.3888 63.8496 54.1865 64.274 53.973 64.6983C53.3436 65.9825 52.7142 67.2891 52.0623 68.6292C51.3654 70.0809 50.6686 71.555 49.9605 73.0737C49.6009 73.8331 49.2412 74.6036 48.8815 75.3853C47.8026 77.7192 46.7124 80.1313 45.5997 82.6216C44.2397 85.6702 42.8348 88.8529 41.4299 92.1584C40.0924 95.3075 38.7099 98.5571 37.3387 101.93C36.0237 105.123 34.6975 108.429 33.3488 111.824C32.1461 114.85 30.9323 117.977 29.7184 121.182C29.6622 121.327 29.6061 121.494 29.5499 121.64C28.336 124.822 27.1109 128.094 25.8858 131.444C25.8633 131.523 25.8296 131.59 25.8071 131.679L31.6516 131.042C31.5392 131.02 31.4156 131.009 31.3032 130.987C38.2828 130.127 47.6003 124.934 53.5571 118.479C56.322 115.531 58.8284 112.047 61.1437 107.971C62.8633 104.945 64.493 101.572 66.044 97.8536C67.3928 94.604 68.6853 91.0751 69.9329 87.2671C68.3256 88.1047 66.4936 88.73 64.4705 89.1544C64.1109 89.2326 63.7512 89.2996 63.3803 89.3666C63.0094 89.4336 62.6385 89.4894 62.2564 89.5341C62.2564 89.5341 62.2676 89.5341 62.2676 89.5229C68.7865 87.0326 72.8888 82.2308 75.8672 76.3457C74.1589 77.507 71.3715 79.0258 68.0334 79.7516C67.5838 79.8522 67.123 79.9303 66.651 80.0085C66.5386 80.0197 66.4149 80.042 66.3026 80.0643H66.325C68.5954 79.1263 70.4948 78.0654 72.147 76.8259C72.5067 76.5578 72.8551 76.2898 73.1698 75.9995C73.6756 75.564 74.1476 75.1061 74.6197 74.6371C74.9119 74.3244 75.1929 74.0117 75.4739 73.6879C76.1258 72.9174 76.7327 72.091 77.2946 71.1976C77.4632 70.9184 77.6431 70.6504 77.8004 70.3601C78.0252 69.9469 78.2275 69.5337 78.4298 69.1429C79.3402 67.3338 80.0708 65.7034 80.644 64.2851C80.9362 63.5704 81.1835 62.9227 81.4082 62.2974C81.4982 62.0517 81.5768 61.8172 81.6555 61.5827C81.8915 60.9015 82.0714 60.2985 82.2175 59.7624C82.4423 58.9584 82.5771 58.3219 82.6446 57.864C82.4198 58.0315 82.1725 58.2102 81.8803 58.3777C79.9134 59.5503 76.5416 60.6 73.8217 61.1025C73.788 61.1137 73.743 61.1137 73.6981 61.1248C73.4171 61.1695 73.1586 61.2142 72.8776 61.2477L73.0125 61.1807L54.6923 63.1796C54.6923 63.2243 54.6586 63.3024 54.6249 63.3694L54.6024 63.4253Z" fill="url(#paint5_linear_17_112)"/>
<path d="M75.2828 26.5737C73.6531 29.0639 71.8773 31.8892 69.9441 35.0942C69.843 35.2505 69.7306 35.4404 69.6406 35.5967C67.9885 38.3662 66.2351 41.4037 64.3694 44.7426C62.7734 47.6238 61.11 50.7059 59.3791 54.0225C57.873 56.9148 56.322 59.9858 54.7148 63.2354L73.0349 61.2365C78.3849 58.7909 80.7676 56.591 83.0829 53.386C83.6898 52.5038 84.3192 51.5881 84.9262 50.6277C86.8144 47.7019 88.6576 44.4858 90.3098 41.2808C91.9058 38.1875 93.3107 35.1277 94.3897 32.3583C95.0753 30.605 95.626 28.9746 96.0082 27.534C96.3454 26.2722 96.6039 25.0661 96.8062 23.9159C89.6917 25.1331 80.9587 26.2945 75.2266 26.5737H75.2828Z" fill="url(#paint6_linear_17_112)"/>
<path d="M63.3691 89.4448C62.9982 89.5118 62.6273 89.5676 62.2451 89.6123C62.6273 89.5788 63.0094 89.5118 63.3691 89.4448Z" fill="#BD202E"/>
<path d="M63.3691 89.4448C62.9982 89.5118 62.6273 89.5676 62.2451 89.6123C62.6273 89.5788 63.0094 89.5118 63.3691 89.4448Z" fill="#BD202E"/>
<path d="M63.3691 89.4448C62.9982 89.5118 62.6273 89.5676 62.2451 89.6123C62.6273 89.5788 63.0094 89.5118 63.3691 89.4448Z" fill="url(#paint7_linear_17_112)"/>
<path d="M66.4037 80.176C66.5161 80.1649 66.6397 80.1425 66.7521 80.1202C66.6397 80.1313 66.5273 80.1649 66.4037 80.176Z" fill="#BD202E"/>
<path d="M66.4037 80.176C66.5161 80.1649 66.6397 80.1425 66.7521 80.1202C66.6397 80.1313 66.5273 80.1649 66.4037 80.176Z" fill="#BD202E"/>
<path d="M66.4037 80.176C66.5161 80.1649 66.6397 80.1425 66.7521 80.1202C66.6397 80.1313 66.5273 80.1649 66.4037 80.176Z" fill="url(#paint8_linear_17_112)"/>
<defs>
<linearGradient id="paint0_linear_17_112" x1="17.4713" y1="126.23" x2="164.634" y2="107.322" gradientUnits="userSpaceOnUse">
<stop stop-color="#F59723"/>
<stop offset="0.312" stop-color="#F69822"/>
<stop offset="0.838" stop-color="#E87726"/>
</linearGradient>
<linearGradient id="paint1_linear_17_112" x1="-209.705" y1="763.675" x2="172.304" y2="84.2463" gradientUnits="userSpaceOnUse">
<stop offset="0.323" stop-color="#9C2063"/>
<stop offset="0.63" stop-color="#C82037"/>
<stop offset="0.751" stop-color="#CC2135"/>
<stop offset="1" stop-color="#E87726"/>
</linearGradient>
<linearGradient id="paint2_linear_17_112" x1="-18.5291" y1="374.813" x2="367.931" y2="-22.098" gradientUnits="userSpaceOnUse">
<stop stop-color="#282661"/>
<stop offset="0.0955" stop-color="#662E8C"/>
<stop offset="0.788" stop-color="#9E2064"/>
<stop offset="0.949" stop-color="#CC2032"/>
</linearGradient>
<linearGradient id="paint3_linear_17_112" x1="-76.4249" y1="330.4" x2="100.572" y2="-101.056" gradientUnits="userSpaceOnUse">
<stop offset="0.323" stop-color="#9C2063"/>
<stop offset="0.63" stop-color="#C82037"/>
<stop offset="0.751" stop-color="#CC2135"/>
<stop offset="1" stop-color="#E87726"/>
</linearGradient>
<linearGradient id="paint4_linear_17_112" x1="-16.0592" y1="150.867" x2="56.2969" y2="-107.788" gradientUnits="userSpaceOnUse">
<stop stop-color="#282661"/>
<stop offset="0.0955" stop-color="#662E8C"/>
<stop offset="0.788" stop-color="#9E2064"/>
<stop offset="0.949" stop-color="#CC2032"/>
</linearGradient>
<linearGradient id="paint5_linear_17_112" x1="-32.5971" y1="364.231" x2="232.087" y2="-8.88355" gradientUnits="userSpaceOnUse">
<stop offset="0.323" stop-color="#9C2063"/>
<stop offset="0.63" stop-color="#C82037"/>
<stop offset="0.751" stop-color="#CC2135"/>
<stop offset="1" stop-color="#E87726"/>
</linearGradient>
<linearGradient id="paint6_linear_17_112" x1="-124.705" y1="901.07" x2="401.715" y2="367.302" gradientUnits="userSpaceOnUse">
<stop offset="0.323" stop-color="#9C2063"/>
<stop offset="0.63" stop-color="#C82037"/>
<stop offset="0.751" stop-color="#CC2135"/>
<stop offset="1" stop-color="#E87726"/>
</linearGradient>
<linearGradient id="paint7_linear_17_112" x1="-4344.18" y1="126618" x2="34619.3" y2="120315" gradientUnits="userSpaceOnUse">
<stop offset="0.323" stop-color="#9C2063"/>
<stop offset="0.63" stop-color="#C82037"/>
<stop offset="0.751" stop-color="#CC2135"/>
<stop offset="1" stop-color="#E87726"/>
</linearGradient>
<linearGradient id="paint8_linear_17_112" x1="-15346.1" y1="411075" x2="109844" y2="389299" gradientUnits="userSpaceOnUse">
<stop offset="0.323" stop-color="#9C2063"/>
<stop offset="0.63" stop-color="#C82037"/>
<stop offset="0.751" stop-color="#CC2135"/>
<stop offset="1" stop-color="#E87726"/>
</linearGradient>
</defs>
</svg>
