<svg width="278" height="150" viewBox="0 0 278 150" fill="none" xmlns="http://www.w3.org/2000/svg">
<path d="M212.711 127.088C246.58 93.2208 252.209 43.9418 225.283 17.0178C198.361 -9.90318 149.084 -4.27517 115.217 29.5898C81.3504 63.4558 91.1474 128.158 102.647 139.66C111.94 148.953 178.846 160.953 212.711 127.088Z" fill="#F89939"/>
<path d="M73.7414 78.1508C54.0934 58.5028 25.4994 55.2318 9.87439 70.8558C-5.74661 86.4778 -2.48061 115.076 17.1714 134.721C36.8234 154.375 74.3664 148.69 81.0344 142.016C86.4304 136.629 93.3954 97.8008 73.7414 78.1508Z" fill="#3499CD"/>
<path d="M141.534 118.787C138.063 121.982 135.018 124.34 132.401 125.855C129.784 127.375 127.288 128.134 124.913 128.134C122.181 128.134 119.977 127.075 118.306 124.956C116.632 122.835 115.798 119.991 115.798 116.413C115.798 111.052 116.96 104.616 119.284 97.1118C121.604 89.6018 124.429 82.6818 127.747 76.3508L137.476 72.7488C137.781 72.6468 138.013 72.5948 138.167 72.5948C138.905 72.5948 139.515 73.1388 139.983 74.2218C140.456 75.3098 140.694 76.7718 140.694 78.6098C140.694 83.8188 139.495 88.8618 137.092 93.7388C134.69 98.6178 130.938 103.825 125.832 109.366C125.627 112.022 125.525 113.846 125.525 114.843C125.525 117.066 125.933 118.825 126.75 120.128C127.568 121.433 128.652 122.081 130.006 122.081C131.387 122.081 132.854 121.587 134.412 120.591C135.967 119.593 138.342 117.527 141.533 114.384V118.787H141.534ZM126.866 103.814C130.108 100.209 132.741 96.1658 134.757 91.6928C136.773 87.2178 137.78 83.3688 137.78 80.1438C137.78 79.2038 137.641 78.4398 137.362 77.8658C137.081 77.2908 136.721 77.0018 136.288 77.0018C135.347 77.0018 133.972 79.3538 132.171 84.0588C130.37 88.7628 128.602 95.3488 126.866 103.814Z" fill="#010101"/>
<path d="M170.186 118.787C166.944 121.982 164.034 124.34 161.454 125.855C158.874 127.375 156.03 128.134 152.913 128.134C149.44 128.134 146.638 127.023 144.503 124.804C142.372 122.579 141.308 119.658 141.308 116.031C141.308 110.619 143.183 105.722 146.941 101.343C150.691 96.9618 154.855 94.7728 159.425 94.7728C161.8 94.7728 163.7 95.3878 165.132 96.6128C166.562 97.8398 167.277 99.4468 167.277 101.439C167.277 106.726 161.66 111.013 150.425 114.308C151.445 119.285 154.113 121.777 158.429 121.777C160.115 121.777 161.722 121.324 163.253 120.42C164.788 119.512 167.097 117.498 170.187 114.385L170.186 118.787ZM150.116 111.703C156.651 109.863 159.921 106.469 159.921 101.515C159.921 99.0638 159.026 97.8388 157.241 97.8388C155.555 97.8388 153.948 99.1198 152.417 101.689C150.881 104.254 150.116 107.59 150.116 111.703Z" fill="#010101"/>
<path d="M211.092 118.787C207.006 122.668 204.082 125.199 202.322 126.375C200.56 127.549 198.875 128.135 197.265 128.135C193.23 128.135 191.329 124.574 191.558 117.449C189.005 121.099 186.648 123.793 184.49 125.533C182.334 127.269 180.107 128.135 177.806 128.135C175.562 128.135 173.654 127.084 172.081 124.977C170.508 122.87 169.727 120.286 169.727 117.219C169.727 113.391 170.778 109.739 172.883 106.264C174.992 102.791 177.692 99.9848 180.985 97.8398C184.278 95.6948 187.192 94.6208 189.717 94.6208C192.91 94.6208 195.145 96.0898 196.422 99.0248L204.25 94.6988H206.398L203.017 105.92C201.281 111.565 200.41 115.434 200.41 117.527C200.41 119.722 201.187 120.82 202.746 120.82C203.738 120.82 204.836 120.291 206.037 119.23C207.238 118.169 208.92 116.554 211.09 114.384V118.787H211.092ZM183.055 120.896C185.608 120.896 188.014 118.72 190.278 114.367C192.538 110.012 193.667 105.994 193.667 102.318C193.667 100.89 193.345 99.7708 192.71 98.9678C192.069 98.1608 191.214 97.7608 190.144 97.7608C187.589 97.7608 185.167 99.9308 182.886 104.273C180.601 108.615 179.456 112.611 179.456 116.259C179.456 117.64 179.796 118.757 180.472 119.613C181.148 120.469 182.006 120.896 183.055 120.896Z" fill="#010101"/>
<path d="M239.705 118.787C233.295 125.068 228.353 128.211 224.881 128.211C223.322 128.211 222.006 127.553 220.936 126.242C219.866 124.926 219.327 123.297 219.327 121.355C219.327 117.755 221.257 112.931 225.112 106.878C223.221 107.849 221.155 108.523 218.907 108.907C217.247 111.971 214.641 115.266 211.093 118.786H210.214V115.343C212.204 113.275 214.005 111.052 215.614 108.677C213.415 107.706 212.319 106.263 212.319 104.351C212.319 102.382 212.987 100.283 214.331 98.0458C215.671 95.8138 217.515 94.6978 219.866 94.6978C221.858 94.6978 222.852 95.7158 222.852 97.7598C222.852 99.3688 222.278 101.666 221.127 104.655C225.365 104.194 229.068 100.954 232.236 94.9258L235.72 94.7718L232.158 104.577C230.678 108.714 229.72 111.532 229.287 113.024C228.854 114.516 228.635 115.84 228.635 116.987C228.635 118.061 228.885 118.919 229.381 119.553C229.879 120.196 230.551 120.512 231.393 120.512C232.311 120.512 233.194 120.198 234.036 119.576C234.878 118.945 236.768 117.217 239.706 114.383V118.787H239.705Z" fill="#010101"/>
<path d="M277.319 118.787C271.421 125.021 266.362 128.135 262.151 128.135C260.44 128.135 259.061 127.535 258.014 126.334C256.965 125.135 256.442 123.527 256.442 121.51C256.442 118.778 257.567 114.602 259.815 108.987C261.014 105.973 261.616 104.055 261.616 103.241C261.616 102.423 261.294 102.014 260.659 102.014C260.302 102.014 259.827 102.194 259.241 102.549C258.702 102.906 258.077 103.408 257.362 104.045C256.725 104.631 256.008 105.346 255.217 106.186C254.526 106.907 253.785 107.723 252.998 108.639L250.85 111.131C249.907 112.279 249.319 113.49 249.09 114.768C248.705 116.938 248.451 118.932 248.322 120.747C248.244 122.097 248.207 123.921 248.207 126.224L239.742 128.212C239.463 124.765 239.32 122.198 239.32 120.515C239.32 116.404 239.799 112.509 240.758 108.833C241.715 105.153 243.252 101.019 245.373 96.4208L254.717 94.6218C252.752 99.9088 251.463 104.069 250.85 107.106C255.038 102.434 258.358 99.1998 260.819 97.3968C263.276 95.5958 265.464 94.6998 267.376 94.6998C268.675 94.6998 269.761 95.1898 270.626 96.1708C271.495 97.1528 271.927 98.3858 271.927 99.8598C271.927 102.309 270.829 106.344 268.636 111.964C267.128 115.818 266.374 118.319 266.374 119.474C266.374 121.011 267.001 121.779 268.255 121.779C270.122 121.779 273.146 119.314 277.319 114.386V118.787Z" fill="#010101"/>
<path d="M164.02 71.097L162.283 71.5887C162.173 71.2992 162.012 71.0178 161.799 70.7446C161.591 70.4659 161.307 70.2364 160.947 70.0561C160.586 69.8758 160.124 69.7857 159.562 69.7857C158.791 69.7857 158.149 69.9632 157.636 70.3184C157.127 70.6681 156.873 71.1134 156.873 71.6543C156.873 72.1351 157.048 72.5149 157.398 72.7935C157.748 73.0722 158.294 73.3044 159.037 73.4902L160.906 73.9491C162.031 74.2223 162.87 74.6403 163.422 75.2031C163.974 75.7604 164.25 76.4789 164.25 77.3586C164.25 78.0798 164.042 78.7246 163.627 79.2928C163.217 79.8611 162.643 80.3091 161.906 80.637C161.168 80.9648 160.31 81.1287 159.332 81.1287C158.048 81.1287 156.985 80.85 156.144 80.2927C155.303 79.7354 154.77 78.9213 154.546 77.8504L156.382 77.3914C156.556 78.0689 156.887 78.5771 157.373 78.9158C157.865 79.2546 158.507 79.424 159.299 79.424C160.201 79.424 160.917 79.2327 161.447 78.8503C161.982 78.4623 162.25 77.9979 162.25 77.457C162.25 77.0199 162.097 76.6538 161.791 76.3587C161.485 76.0582 161.015 75.8342 160.381 75.6867L158.283 75.1949C157.13 74.9217 156.283 74.4983 155.742 73.9246C155.207 73.3454 154.939 72.6214 154.939 71.7527C154.939 71.0423 155.139 70.414 155.537 69.8676C155.942 69.3212 156.491 68.8923 157.185 68.5809C157.884 68.2694 158.676 68.1137 159.562 68.1137C160.807 68.1137 161.785 68.3869 162.496 68.9333C163.212 69.4797 163.72 70.2009 164.02 71.097Z" fill="white"/>
<path d="M172.275 81.1287C171.095 81.1287 170.079 80.85 169.227 80.2927C168.374 79.7354 167.719 78.9677 167.26 77.9897C166.801 77.0117 166.571 75.8943 166.571 74.6376C166.571 73.359 166.806 72.2307 167.276 71.2527C167.751 70.2692 168.412 69.5015 169.259 68.9497C170.112 68.3924 171.106 68.1137 172.243 68.1137C173.128 68.1137 173.926 68.2776 174.636 68.6055C175.346 68.9333 175.928 69.3923 176.382 69.9824C176.835 70.5725 177.116 71.2609 177.226 72.0477H175.292C175.144 71.474 174.816 70.9659 174.308 70.5233C173.805 70.0752 173.128 69.8512 172.275 69.8512C171.521 69.8512 170.86 70.0479 170.292 70.4413C169.729 70.8293 169.289 71.3784 168.973 72.0887C168.661 72.7935 168.505 73.6213 168.505 74.572C168.505 75.5446 168.658 76.3915 168.964 77.1127C169.276 77.834 169.713 78.394 170.276 78.7929C170.844 79.1917 171.51 79.3912 172.275 79.3912C172.778 79.3912 173.234 79.3038 173.644 79.1289C174.054 78.9541 174.401 78.7027 174.685 78.3749C174.969 78.0471 175.171 77.6537 175.292 77.1947H177.226C177.116 77.9378 176.846 78.6071 176.414 79.2027C175.988 79.7928 175.423 80.2627 174.718 80.6124C174.018 80.9566 173.204 81.1287 172.275 81.1287Z" fill="white"/>
<path d="M180.053 80.8664V68.2776H181.988V80.8664H180.053ZM181.037 66.1795C180.66 66.1795 180.335 66.0511 180.061 65.7943C179.794 65.5375 179.66 65.2288 179.66 64.8681C179.66 64.5075 179.794 64.1988 180.061 63.942C180.335 63.6852 180.66 63.5568 181.037 63.5568C181.414 63.5568 181.736 63.6852 182.004 63.942C182.277 64.1988 182.414 64.5075 182.414 64.8681C182.414 65.2288 182.277 65.5375 182.004 65.7943C181.736 66.0511 181.414 66.1795 181.037 66.1795Z" fill="white"/>
<path d="M187.333 76.2768L187.3 73.8836H187.694L193.201 68.2776H195.595L189.726 74.2114H189.563L187.333 76.2768ZM185.53 80.8664V64.0813H187.464V80.8664H185.53ZM193.529 80.8664L188.612 74.6376L189.989 73.2935L195.988 80.8664H193.529Z" fill="white"/>
<path d="M198.084 80.8664V68.2776H200.018V80.8664H198.084ZM199.068 66.1795C198.691 66.1795 198.366 66.0511 198.092 65.7943C197.825 65.5375 197.691 65.2288 197.691 64.8681C197.691 64.5075 197.825 64.1988 198.092 63.942C198.366 63.6852 198.691 63.5568 199.068 63.5568C199.445 63.5568 199.767 63.6852 200.035 63.942C200.308 64.1988 200.445 64.5075 200.445 64.8681C200.445 65.2288 200.308 65.5375 200.035 65.7943C199.767 66.0511 199.445 66.1795 199.068 66.1795Z" fill="white"/>
<path d="M209.036 68.2776V69.9168H202.512V68.2776H209.036ZM204.413 65.2615H206.348V77.2603C206.348 77.8067 206.427 78.2164 206.585 78.4896C206.749 78.7574 206.957 78.9377 207.208 79.0306C207.465 79.118 207.735 79.1617 208.02 79.1617C208.233 79.1617 208.408 79.1508 208.544 79.1289C208.681 79.1016 208.79 79.0797 208.872 79.0633L209.265 80.8009C209.134 80.85 208.951 80.8992 208.716 80.9484C208.481 81.003 208.183 81.0303 207.823 81.0303C207.276 81.0303 206.741 80.9129 206.216 80.6779C205.697 80.443 205.266 80.0851 204.922 79.6043C204.583 79.1235 204.413 78.517 204.413 77.7848V65.2615Z" fill="white"/>
</svg>
