<svg width="189" height="133" viewBox="0 0 189 133" fill="none" xmlns="http://www.w3.org/2000/svg">
<g filter="url(#filter0_i_127_27)">
<path d="M5 11.0002C5 8.23882 7.23858 6.00024 10 6.00024H179C181.761 6.00024 184 8.23882 184 11.0002V123C184 125.762 181.761 128 179 128H10C7.23857 128 5 125.762 5 123V11.0002Z" stroke="white" stroke-width="10"/>
<path d="M96.7192 77.4762C94.921 78.8441 92.4289 78.8361 90.6395 77.4568L9.23126 14.7047C5.44561 11.7866 7.52003 5.72935 12.2998 5.74466L175.517 6.26732C180.296 6.28263 182.332 12.353 178.528 15.2468L96.7192 77.4762Z" stroke="white" stroke-width="10"/>
</g>
<defs>
<filter id="filter0_i_127_27" x="0" y="0.744629" width="189" height="136.255" filterUnits="userSpaceOnUse" color-interpolation-filters="sRGB">
<feFlood flood-opacity="0" result="BackgroundImageFix"/>
<feBlend mode="normal" in="SourceGraphic" in2="BackgroundImageFix" result="shape"/>
<feColorMatrix in="SourceAlpha" type="matrix" values="0 0 0 0 0 0 0 0 0 0 0 0 0 0 0 0 0 0 127 0" result="hardAlpha"/>
<feOffset dy="4"/>
<feGaussianBlur stdDeviation="2"/>
<feComposite in2="hardAlpha" operator="arithmetic" k2="-1" k3="1"/>
<feColorMatrix type="matrix" values="0 0 0 0 0 0 0 0 0 0 0 0 0 0 0 0 0 0 0.25 0"/>
<feBlend mode="normal" in2="shape" result="effect1_innerShadow_127_27"/>
</filter>
</defs>
</svg>
