<svg width="220" height="246" viewBox="0 0 220 246" fill="none" xmlns="http://www.w3.org/2000/svg">
<path d="M119.926 190.603C119.816 189.203 119.75 188.294 119.75 188.294C119.75 188.294 115.505 159.677 110.452 151.138C109.653 149.784 110.539 144.225 112.77 135.99C114.074 138.245 119.579 147.89 120.684 150.998C121.929 154.512 122.191 155.518 122.191 155.518C122.191 155.518 119.172 139.984 114.218 130.919C115.303 127.254 116.601 123.204 118.069 118.874C119.946 122.166 124.438 130.138 125.427 132.903C125.627 133.471 125.796 133.954 125.947 134.396C125.995 134.13 126.044 133.864 126.092 133.599C124.958 128.786 122.73 120.411 119.68 114.224C126.447 79.0009 149.528 31.9207 173.19 10.9149H18.8321C8.48682 10.9149 0.0224609 19.3808 0.0224609 29.7257V199.954C0.0224609 210.298 8.48682 218.762 18.8321 218.762H120.496C119.763 209.889 119.519 200.072 119.926 190.603Z" fill="#0F80CC"/>
<path d="M112.77 135.99C114.074 138.245 119.579 147.89 120.684 150.998C121.929 154.512 122.191 155.518 122.191 155.518C122.191 155.518 119.172 139.984 114.218 130.919C115.303 127.254 116.601 123.204 118.069 118.874C119.785 121.885 123.684 128.802 125.094 132.079C125.146 131.46 125.198 130.842 125.253 130.229C124.004 125.43 122.108 119.147 119.68 114.224C125.912 81.7931 145.972 39.3278 167.582 16.4024H18.8321C11.4863 16.4024 5.50862 22.3786 5.50862 29.7257V187.534C39.1974 174.604 79.819 162.785 114.78 163.292C113.482 158.287 112.004 153.761 110.452 151.138C109.653 149.784 110.539 144.225 112.77 135.99Z" fill="url(#paint0_linear_18_19)"/>
<path d="M209.194 5.34401C198.623 -4.08367 185.823 -0.296728 173.19 10.9149C171.315 12.5805 169.444 14.4284 167.582 16.4024C145.972 39.3278 125.912 81.7931 119.68 114.224C122.108 119.147 124.004 125.43 125.253 130.229C125.573 131.46 125.862 132.616 126.092 133.599C126.641 135.926 126.936 137.434 126.936 137.434C126.936 137.434 126.742 136.701 125.947 134.396C125.796 133.954 125.627 133.471 125.427 132.903C125.342 132.668 125.224 132.383 125.094 132.079C123.684 128.802 119.785 121.885 118.069 118.874C116.601 123.204 115.303 127.254 114.218 130.919C119.172 139.984 122.191 155.518 122.191 155.518C122.191 155.518 121.929 154.512 120.684 150.998C119.579 147.89 114.074 138.245 112.77 135.99C110.539 144.225 109.653 149.784 110.452 151.138C112.004 153.761 113.482 158.287 114.78 163.292C117.712 174.567 119.75 188.294 119.75 188.294C119.75 188.294 119.816 189.203 119.926 190.603C119.519 200.072 119.763 209.889 120.496 218.762C121.468 230.509 123.296 240.6 125.627 246L127.209 245.137C123.787 234.498 122.397 220.554 123.005 204.473C123.926 179.894 129.583 150.252 140.034 119.357C157.691 72.7184 182.189 35.2985 204.611 17.4282C184.175 35.8841 156.516 95.6244 148.236 117.747C138.966 142.52 132.396 165.768 128.437 188.041C135.268 167.16 157.356 158.185 157.356 158.185C157.356 158.185 168.189 144.824 180.849 125.736C173.266 127.466 160.813 130.427 156.642 132.179C150.49 134.76 148.832 135.641 148.832 135.641C148.832 135.641 168.761 123.504 185.86 118.009C209.375 80.9729 234.994 28.3586 209.194 5.34401Z" fill="#003B57"/>
<defs>
<linearGradient id="paint0_linear_18_19" x1="126.852" y1="240.966" x2="126.852" y2="13.6807" gradientUnits="userSpaceOnUse">
<stop stop-color="#97D9F6"/>
<stop offset="0.920245" stop-color="#0F80CC"/>
<stop offset="1" stop-color="#0F80CC"/>
</linearGradient>
</defs>
</svg>
