<svg width="312" height="257" viewBox="0 0 312 257" fill="none" xmlns="http://www.w3.org/2000/svg">
<path d="M190.073 162.926C190.073 162.421 190.097 161.922 190.111 161.42H93.7566C79.5543 161.42 68 172.975 68 187.177C68 201.379 79.5543 212.933 93.7566 212.933H227.218C205.751 206.441 190.073 186.483 190.073 162.926ZM122.524 193.867H99.1086C95.4197 193.867 92.4186 190.866 92.4186 187.177C92.4186 183.488 95.4197 180.487 99.1086 180.487H122.524C126.213 180.487 129.214 183.488 129.214 187.177C129.214 190.866 126.213 193.867 122.524 193.867Z" fill="#D1003A"/>
<path d="M93.7566 152.723H191.08C195.84 128.786 216.999 110.685 242.313 110.685C248.695 110.685 254.811 111.841 260.469 113.945C255.989 106.333 247.714 101.21 238.261 101.21H93.7566C79.5543 101.21 68 112.765 68 126.967C68 141.169 79.5543 152.723 93.7566 152.723ZM99.1086 120.277H122.524C126.213 120.277 129.214 123.278 129.214 126.967C129.214 130.656 126.213 133.657 122.524 133.657H99.1086C95.4197 133.657 92.4186 130.656 92.4186 126.967C92.4186 123.278 95.4197 120.277 99.1086 120.277Z" fill="#FFCA00"/>
<path d="M93.7566 92.5131H238.261C252.463 92.5131 264.018 80.9588 264.018 66.7566C264.018 52.5543 252.463 41 238.261 41H93.7566C79.5543 41 68 52.5543 68 66.7566C68 80.9588 79.5543 92.5131 93.7566 92.5131ZM226.888 58.2268C231.591 58.2268 235.418 62.0535 235.418 66.7566C235.418 71.4597 231.591 75.2863 226.888 75.2863C222.185 75.2863 218.358 71.4597 218.358 66.7566C218.358 62.0535 222.185 58.2268 226.888 58.2268ZM99.1086 60.0666H122.524C126.213 60.0666 129.214 63.0677 129.214 66.7566C129.214 70.4454 126.213 73.4466 122.524 73.4466H99.1086C95.4197 73.4466 92.4186 70.4454 92.4186 66.7566C92.4186 63.0677 95.4197 60.0666 99.1086 60.0666Z" fill="#6CA37F"/>
<path d="M242.313 125.239C221.499 125.239 204.626 142.112 204.626 162.926C204.626 183.74 221.499 200.612 242.313 200.612C263.127 200.612 279.999 183.74 279.999 162.926C279.999 142.112 263.127 125.239 242.313 125.239ZM262.447 154.942L238.595 178.794C238.09 179.299 237.418 179.578 236.703 179.578C235.988 179.578 235.315 179.299 234.81 178.794L222.849 166.832C222.343 166.327 222.064 165.654 222.064 164.94C222.064 164.225 222.343 163.553 222.849 163.047L225.213 160.682C225.718 160.177 226.39 159.898 227.105 159.898C227.82 159.898 228.492 160.177 228.997 160.682L236.703 168.387L256.299 148.792C256.803 148.287 257.475 148.008 258.191 148.008C258.906 148.008 259.578 148.287 260.083 148.792L262.448 151.157C262.953 151.662 263.232 152.334 263.232 153.049C263.231 153.764 262.953 154.437 262.447 154.942Z" fill="#6CA37F"/>
</svg>
