<svg width="641" height="187" viewBox="0 0 641 187" fill="none" xmlns="http://www.w3.org/2000/svg">
<path fill-rule="evenodd" clip-rule="evenodd" d="M596.441 2.41701C594.669 3.71001 594.456 5.506 594 23.005L593.5 42.176L590.694 44.588C588.074 46.841 587.114 47 576.167 47C559.647 47 560 46.654 560 62.857C560 71.435 560.392 75.992 561.2 76.8C562.909 78.509 587.382 78.464 588.759 76.75C589.311 76.063 589.963 70.413 590.208 64.196C590.628 53.539 590.808 52.737 593.348 50.196L596.042 47.5L616.604 47C635.482 46.541 637.282 46.341 638.583 44.559C639.687 43.047 640 38.457 640 23.809C640 -0.920994 641.921 1.00001 617.191 1.00001C602.543 1.00001 597.953 1.31301 596.441 2.41701Z" fill="#FF6600"/>
<path fill-rule="evenodd" clip-rule="evenodd" d="M314 94.885L322.5 95.5L323.077 114.161L319.789 111.74C314.164 107.601 310.071 106.497 300.5 106.542C292.8 106.578 290.775 106.961 286.48 109.192C280.201 112.455 272.564 120.518 269.927 126.67C262.557 143.864 266.448 166.811 278.62 177.935C284.969 183.739 290.965 186 300 186C308.705 186 315.36 183.64 320.143 178.857C323.895 175.105 324 175.068 324 177.5C324 180.763 327.055 183.735 331.194 184.498C333.012 184.834 338.325 184.972 343 184.804L351.5 184.5L352.079 168.119L343.5 167.5L343 126C342.465 81.609 342.375 80.853 337.374 78.952C335.997 78.428 330.174 78 324.435 78H314V94.885ZM356.419 79.349C356.135 80.091 356.036 83.804 356.201 87.599L356.5 94.5L365.5 95.5L366.021 185H384V176.906L387.75 179.913C395.714 186.3 408.799 187.918 419.653 183.857C435.235 178.027 444.334 158.706 441.148 138.212C438.215 119.35 427.241 107.658 411.207 106.314C402.228 105.561 394.315 107.817 388.959 112.656L385 116.233V100.198C385 91.379 384.72 83.435 384.379 82.545C383.112 79.244 378.499 78 367.518 78C359.561 78 356.809 78.335 356.419 79.349ZM497 96H514V78H497V96ZM220 108H209.916L210.5 123.5L220 124.11V142.873C220 164.34 220.967 169.264 226.434 175.652C231.374 181.423 238.395 184.237 249.25 184.795L258 185.245V168L255.25 167.994C250.171 167.984 245.148 165.965 242.564 162.894C240.021 159.871 240 159.702 240 141.923V124H257V108H240V87H220V108ZM85.804 107.871C75.282 111.342 67.988 118.199 62.797 129.5C60.823 133.796 60.5 136.122 60.5 146.021C60.5 156.992 60.655 157.856 63.741 164.126C67.66 172.087 74.837 179.115 82.782 182.772C87.246 184.828 90.483 185.494 97.545 185.813C110.716 186.407 121.623 183.195 129.743 176.332L131.911 174.5L123.777 161.023L120.961 163.028C115.191 167.136 109.661 168.956 102.872 168.978C95.505 169.002 90.864 167.457 86.693 163.591C84.002 161.097 80.067 153.817 80.022 151.25C80.005 150.282 85.843 150 105.939 150H131.877L132.521 145.71C133.367 140.065 131.446 129.814 128.424 123.85C122.453 112.068 113.925 106.786 100.081 106.296C93.719 106.071 90.027 106.478 85.804 107.871ZM160.624 107.573C149.818 111.033 144.406 116.772 143.323 125.924C141.957 137.458 148.898 145.664 166.095 152.845C178.309 157.945 183 161.15 183 164.396C183 173.362 163.292 172.02 153.671 162.398C152.254 160.982 150.706 160.063 150.23 160.358C149.755 160.652 147.486 163.572 145.188 166.847L141.011 172.802L144.708 176.049C146.742 177.834 151.352 180.674 154.953 182.361C163.511 186.368 176.634 187.245 185.643 184.411C198.462 180.379 205.664 168.152 201.847 156.899C199.054 148.665 193.675 144.414 178.666 138.577C165.707 133.538 163 131.717 163 128.038C163 124.569 165.646 122.439 171 121.598C176.501 120.734 181.259 122.891 182.361 126.75L183.289 130H200.233L199.82 123.507C199.454 117.766 199.017 116.613 196.046 113.548C194.198 111.641 190.619 109.347 188.093 108.449C181.467 106.094 166.713 105.623 160.624 107.573ZM562.024 107.54C537.357 114.454 525.238 141.646 536.64 164.5C543.866 178.983 558.222 186.591 576.887 185.829C585.107 185.494 587.477 184.979 593.241 182.275C601.547 178.379 608.631 171.49 612.56 163.487C615.296 157.916 615.5 156.701 615.5 146C615.5 135.045 615.351 134.215 612.354 128.484C608.342 120.814 600.751 113.714 592.365 109.79C586.843 107.206 584.312 106.653 576.642 106.357C570.485 106.12 565.712 106.506 562.024 107.54ZM43.5 108.207C38.857 109.83 34.061 113.834 31.022 118.627L28.254 122.992L27.755 117.805C27.369 113.78 26.655 112.1 24.573 110.309C22.122 108.201 20.935 108 10.944 108H0V124.885L8.5 125.5L9.03 185H28L28.006 169.25C28.012 151.067 29.04 143.341 32.291 137.024C35.332 131.113 41.74 127.089 49.361 126.302L55 125.72V107L50.75 107.079C48.413 107.122 45.15 107.63 43.5 108.207ZM487 124.885L495.5 125.5L496 152.5C496.275 167.35 496.892 180.108 497.372 180.852C499.181 183.656 504.882 185 514.968 185H525V168.115L516.5 167.5L516 141C515.482 113.529 515.122 111.206 511.043 109.023C509.992 108.46 504.152 108 498.066 108H487V124.885ZM94.123 122.002C89.868 123.007 86.137 125.747 83.25 129.99C79.206 135.931 79.36 136 96.631 136H112.262L111.668 132.344C110.932 127.805 106.748 123.303 102.057 121.999C100.101 121.456 98.275 121.055 98 121.108C97.725 121.161 95.98 121.564 94.123 122.002ZM297.316 124.943C284.381 130.816 282.323 154.433 293.797 165.33C300.514 171.71 311.927 170.629 318.342 163.005C321.571 159.168 322.987 154.179 322.994 146.616C323.002 139.014 321.454 134.006 317.683 129.432C312.381 122.999 305.122 121.4 297.316 124.943ZM396.239 124.596C388.787 128.399 385.011 135.598 385.011 146C385.011 160.561 391.968 169.286 403.577 169.286C410.51 169.286 415.957 165.752 419.215 159.138C422.419 152.634 422.419 139.43 419.213 133.308C414.635 124.563 404.119 120.575 396.239 124.596ZM565.444 124.886C552.79 130.634 548.301 147.831 556.349 159.728C561.018 166.63 566.577 169.243 575.673 168.81C581.82 168.518 583.465 168.022 587.173 165.343C593.291 160.923 596.125 154.985 596.125 146.586C596.125 135.996 591.201 128.086 582.282 124.348C577.786 122.465 570.246 122.705 565.444 124.886ZM454.5 184.5L473 185.075V165H453.928L454.5 184.5Z" fill="#FCFCFC"/>
</svg>
