<svg width="477" height="465" viewBox="0 0 477 465" fill="none" xmlns="http://www.w3.org/2000/svg">
<g filter="url(#filter0_i_0_1)">
<path d="M396.814 380.332L334.129 317.638C321.644 305.204 300.965 305.584 288.043 318.506L256.464 350.085C254.471 348.981 252.405 347.833 250.233 346.615C230.291 335.565 202.993 320.419 174.267 291.673C145.461 262.869 130.296 235.528 119.216 215.571C118.04 213.456 116.921 211.42 115.817 209.484L137.014 188.316L147.433 177.883C160.376 164.94 160.735 144.266 148.272 131.798L85.5847 69.0962C73.1302 56.6416 52.4427 57.0203 39.4993 69.9638L21.8313 87.7319L22.3182 88.2128C16.3955 95.7705 11.4405 104.49 7.76183 113.891C4.36368 122.839 2.24785 131.381 1.28009 139.934C-6.99489 208.559 24.3619 271.272 109.464 356.382C227.099 474.009 321.903 465.125 325.99 464.688C334.904 463.627 343.436 461.497 352.113 458.127C361.434 454.484 370.148 449.543 377.698 443.634L378.084 443.971L395.983 426.445C408.898 413.504 409.271 392.83 396.814 380.332ZM382.058 412.508L374.169 420.382L371.028 423.402C366.081 428.184 357.517 434.903 345.013 439.793C337.914 442.526 330.915 444.282 323.794 445.129C322.898 445.215 233.731 452.823 123.373 342.473C29.5393 248.643 14.502 194.575 20.8054 142.209C21.5949 135.268 23.336 128.283 26.1191 120.984C31.052 108.407 37.7642 99.8519 42.5107 94.8969L53.4165 83.883C58.672 78.6134 66.8689 78.2107 71.6736 83.0154L134.359 145.701C139.156 150.512 138.777 158.708 133.514 163.994L91.1789 206.287L95.086 212.863C97.2579 216.527 99.554 220.635 102.006 225.097C113.652 246.099 129.584 274.847 160.354 305.588C191.044 336.294 219.75 352.213 240.688 363.828C245.212 366.33 249.343 368.633 253.05 370.841L259.64 374.748L301.947 332.427C307.224 327.171 315.449 326.783 320.254 331.573L382.911 394.245C387.702 399.048 387.321 407.244 382.058 412.508Z" fill="#F5F5F5"/>
</g>
<g filter="url(#filter1_i_0_1)">
<path d="M220.1 7.5H459.9C462.05 7.5 462.516 7.51142 462.823 7.54529C466.314 7.93065 469.069 10.6865 469.455 14.177C469.489 14.4838 469.5 14.9497 469.5 17.1V167.728C469.5 169.879 469.489 170.345 469.455 170.651C469.069 174.142 466.314 176.898 462.823 177.283C462.516 177.317 462.05 177.328 459.9 177.328H342.769L342.646 177.328C342.038 177.328 341.503 177.328 340.966 177.354C336.579 177.561 332.349 179.049 328.797 181.632C328.362 181.948 327.945 182.283 327.471 182.663L327.375 182.741L308.669 197.749C307.208 198.921 306.893 199.162 306.658 199.315C304.016 201.034 300.582 200.918 298.063 199.025C297.838 198.856 297.54 198.594 296.162 197.326L281.486 183.825L281.385 183.732C280.891 183.277 280.456 182.877 280.001 182.5C276.275 179.413 271.652 177.611 266.821 177.359C266.23 177.328 265.639 177.328 264.967 177.328L264.831 177.328H220.1C217.95 177.328 217.484 177.317 217.177 177.283C213.686 176.898 210.931 174.142 210.545 170.651C210.511 170.345 210.5 169.879 210.5 167.728V17.1C210.5 14.9497 210.511 14.4838 210.545 14.177C210.931 10.6865 213.686 7.93065 217.177 7.54529C217.484 7.51142 217.95 7.5 220.1 7.5Z" stroke="#F5F5F5" stroke-width="15"/>
<ellipse cx="277.175" cy="92.4143" rx="18.2396" ry="17.0237" fill="#F5F5F5"/>
<ellipse cx="339.595" cy="92.4143" rx="18.2396" ry="17.0237" fill="#F5F5F5"/>
<ellipse cx="402.015" cy="92.4143" rx="18.2396" ry="17.0237" fill="#F5F5F5"/>
</g>
<defs>
<filter id="filter0_i_0_1" x="-0.00012207" y="60" width="409.919" height="409" filterUnits="userSpaceOnUse" color-interpolation-filters="sRGB">
<feFlood flood-opacity="0" result="BackgroundImageFix"/>
<feBlend mode="normal" in="SourceGraphic" in2="BackgroundImageFix" result="shape"/>
<feColorMatrix in="SourceAlpha" type="matrix" values="0 0 0 0 0 0 0 0 0 0 0 0 0 0 0 0 0 0 127 0" result="hardAlpha"/>
<feOffset dx="4" dy="4"/>
<feGaussianBlur stdDeviation="5"/>
<feComposite in2="hardAlpha" operator="arithmetic" k2="-1" k3="1"/>
<feColorMatrix type="matrix" values="0 0 0 0 0 0 0 0 0 0 0 0 0 0 0 0 0 0 0.25 0"/>
<feBlend mode="normal" in2="shape" result="effect1_innerShadow_0_1"/>
</filter>
<filter id="filter1_i_0_1" x="203" y="0" width="278" height="212.028" filterUnits="userSpaceOnUse" color-interpolation-filters="sRGB">
<feFlood flood-opacity="0" result="BackgroundImageFix"/>
<feBlend mode="normal" in="SourceGraphic" in2="BackgroundImageFix" result="shape"/>
<feColorMatrix in="SourceAlpha" type="matrix" values="0 0 0 0 0 0 0 0 0 0 0 0 0 0 0 0 0 0 127 0" result="hardAlpha"/>
<feOffset dx="4" dy="4"/>
<feGaussianBlur stdDeviation="5"/>
<feComposite in2="hardAlpha" operator="arithmetic" k2="-1" k3="1"/>
<feColorMatrix type="matrix" values="0 0 0 0 0 0 0 0 0 0 0 0 0 0 0 0 0 0 0.25 0"/>
<feBlend mode="normal" in2="shape" result="effect1_innerShadow_0_1"/>
</filter>
</defs>
</svg>
