<svg width="100" height="70" viewBox="0 0 100 70" fill="none" xmlns="http://www.w3.org/2000/svg">
<path d="M50 70C77.6142 70 100 54.33 100 35C100 15.67 77.6142 0 50 0C22.3858 0 0 15.67 0 35C0 54.33 22.3858 70 50 70Z" fill="#8993BE"/>
<path fill-rule="evenodd" clip-rule="evenodd" d="M14.041 55.7237L19.5207 18.4208H32.1914C37.6707 18.8815 40.4105 22.5654 40.4105 29.0133C40.4105 40.0659 33.9039 46.5133 28.0816 46.0526H21.918L20.548 55.7237H14.041ZM23.2875 39.1451L25 25.3289H29.452C31.8492 25.3289 33.5613 26.7104 33.5613 29.4734C33.2191 37.3029 30.4793 38.6844 27.3973 39.1451H23.2875ZM39.1375 46.0526L44.6168 8.75026H51.1238L49.7539 18.4208H55.918C61.3977 18.8815 63.4523 22.5654 62.7676 27.1711L60.3703 46.0526H53.5211L55.9184 29.0133C56.2605 26.7104 56.2605 25.3289 53.8637 25.3289H48.7266L45.6445 46.0526H39.1375ZM59.9316 55.7237L65.4109 18.4208H78.082C83.5617 18.8815 86.3016 22.5654 86.3016 29.0133C86.3016 40.0659 79.7945 46.5133 73.9726 46.0526H67.8082L66.4383 55.7237H59.9316ZM69.1777 39.1451L70.8902 25.3289H75.3426C77.7398 25.3289 79.452 26.7104 79.452 29.4734C79.1098 37.3029 76.3699 38.6844 73.2879 39.1451H69.1777Z" fill="#232531"/>
</svg>
