<svg width="178" height="178" viewBox="0 0 178 178" fill="none" xmlns="http://www.w3.org/2000/svg">
<path d="M89 177C137.601 177 177 137.601 177 89C177 40.3989 137.601 1 89 1C40.3989 1 1 40.3989 1 89C1 137.601 40.3989 177 89 177Z" fill="white"/>
<path d="M89 155C125.451 155 155 125.451 155 89C155 52.5492 125.451 23 89 23C52.5492 23 23 52.5492 23 89C23 125.451 52.5492 155 89 155Z" fill="white"/>
<path d="M89 133C113.301 133 133 113.301 133 89C133 64.6995 113.301 45 89 45C64.6995 45 45 64.6995 45 89C45 113.301 64.6995 133 89 133Z" fill="white"/>
<path d="M89 111C101.15 111 111 101.15 111 89C111 76.8497 101.15 67 89 67C76.8497 67 67 76.8497 67 89C67 101.15 76.8497 111 89 111Z" fill="white"/>
<path d="M89 1V177ZM151 151L27 27ZM151 27L27 151ZM177 89H1Z" fill="white"/>
<path d="M89 89H107C107.233 87.3414 107.233 85.6586 107 84L89 89Z" fill="#4444CC"/>
<path d="M89 89L123 46C118.445 42.5721 113.384 39.8732 108 38L89 89Z" fill="#BBCC33"/>
<path d="M89 89L73 17C61.6308 19.4925 51.0099 24.6316 42 32L89 89Z" fill="#DD9933"/>
<path d="M89 89L31 61C25.3471 73.1721 23.6005 86.7956 26 100L89 89Z" fill="#DDBB33"/>
<path d="M89 89L56 105C56.5443 106.713 57.2128 108.384 58 110L89 89Z" fill="#33BBBB"/>
<path d="M89 89L79 134C84.9415 135.185 91.0585 135.185 97 134L89 89Z" fill="#33CC99"/>
<path d="M89 89L135 147C139.447 143.473 143.473 139.447 147 135L89 89Z" fill="#DD7733"/>
<path d="M177 89C177 137.601 137.601 177 89 177M177 89C177 40.3989 137.601 1 89 1M177 89H1M89 177C40.3989 177 1 137.601 1 89M89 177V1M1 89C1 40.3989 40.3989 1 89 1M151 151L27 27M151 27L27 151M89 89H107C107.233 87.3414 107.233 85.6586 107 84L89 89ZM89 89L123 46C118.445 42.5721 113.384 39.8732 108 38L89 89ZM89 89L73 17C61.6308 19.4925 51.0099 24.6316 42 32L89 89ZM89 89L31 61C25.3471 73.1721 23.6005 86.7956 26 100L89 89ZM89 89L56 105C56.5443 106.713 57.2128 108.384 58 110L89 89ZM89 89L79 134C84.9415 135.185 91.0585 135.185 97 134L89 89ZM89 89L135 147C139.447 143.473 143.473 139.447 147 135L89 89ZM155 89C155 125.451 125.451 155 89 155C52.5492 155 23 125.451 23 89C23 52.5492 52.5492 23 89 23C125.451 23 155 52.5492 155 89ZM133 89C133 113.301 113.301 133 89 133C64.6995 133 45 113.301 45 89C45 64.6995 64.6995 45 89 45C113.301 45 133 64.6995 133 89ZM111 89C111 101.15 101.15 111 89 111C76.8497 111 67 101.15 67 89C67 76.8497 76.8497 67 89 67C101.15 67 111 76.8497 111 89Z" stroke="#808080"/>
</svg>
