<svg width="170" height="134" viewBox="0 0 170 134" fill="none" xmlns="http://www.w3.org/2000/svg">
<path d="M116 59.2005H91C90.1712 59.2005 89.3764 59.4586 88.7903 59.9181C88.2042 60.3775 87.875 61.0007 87.875 61.6505C87.875 62.3002 88.2042 62.9234 88.7903 63.3829C89.3764 63.8423 90.1712 64.1004 91 64.1004H116C116.829 64.1004 117.624 63.8423 118.21 63.3829C118.796 62.9234 119.125 62.3002 119.125 61.6505C119.125 61.0007 118.796 60.3775 118.21 59.9181C117.624 59.4586 116.829 59.2005 116 59.2005Z" fill="white"/>
<path d="M80.2334 54.7121C79.5438 54.3516 78.6998 54.2208 77.8872 54.3482C77.0745 54.4756 76.3596 54.8509 75.8999 55.3915L71.1807 60.9423L67.3989 59.4589C66.6575 59.1683 65.7993 59.1204 65.0129 59.3259C64.2265 59.5314 63.5765 59.9734 63.2058 60.5547C62.8351 61.1359 62.7741 61.8088 63.0362 62.4253C63.2984 63.0418 63.8621 63.5514 64.6035 63.8421L70.8535 66.292C71.535 66.5594 72.3175 66.6223 73.054 66.4689C73.7904 66.3156 74.4301 65.9566 74.8525 65.4594L81.1025 58.1095C81.3301 57.8417 81.488 57.5414 81.5675 57.2257C81.6469 56.91 81.6463 56.5851 81.5656 56.2696C81.4849 55.9541 81.3257 55.6542 81.0971 55.387C80.8685 55.1197 80.575 54.8904 80.2334 54.7121Z" fill="white"/>
<path d="M116 76.3503H91C90.1712 76.3503 89.3764 76.6085 88.7903 77.0679C88.2042 77.5274 87.875 78.1506 87.875 78.8003C87.875 79.4501 88.2042 80.0733 88.7903 80.5327C89.3764 80.9922 90.1712 81.2503 91 81.2503H116C116.829 81.2503 117.624 80.9922 118.21 80.5327C118.796 80.0733 119.125 79.4501 119.125 78.8003C119.125 78.1506 118.796 77.5274 118.21 77.0679C117.624 76.6085 116.829 76.3503 116 76.3503Z" fill="white"/>
<path d="M80.2334 71.8619C79.5438 71.5015 78.6998 71.3706 77.8872 71.498C77.0745 71.6255 76.3596 72.0008 75.8999 72.5414L71.1807 78.0921L67.3989 76.6087C66.6575 76.3181 65.7993 76.2703 65.0129 76.4758C64.2265 76.6813 63.5765 77.1233 63.2058 77.7045C62.8351 78.2858 62.7741 78.9587 63.0362 79.5752C63.2984 80.1917 63.8621 80.7013 64.6035 80.9919L70.8535 83.4419C71.535 83.7092 72.3175 83.7721 73.054 83.6188C73.7904 83.4654 74.4301 83.1064 74.8525 82.6093L81.1025 75.2593C81.3301 74.9915 81.488 74.6912 81.5675 74.3755C81.6469 74.0598 81.6463 73.735 81.5656 73.4195C81.4849 73.104 81.3257 72.8041 81.0971 72.5368C80.8685 72.2696 80.575 72.0402 80.2334 71.8619Z" fill="white"/>
<path d="M116 93.5002H91C90.1712 93.5002 89.3764 93.7583 88.7903 94.2178C88.2042 94.6772 87.875 95.3004 87.875 95.9502C87.875 96.6 88.2042 97.2231 88.7903 97.6826C89.3764 98.142 90.1712 98.4002 91 98.4002H116C116.829 98.4002 117.624 98.142 118.21 97.6826C118.796 97.2231 119.125 96.6 119.125 95.9502C119.125 95.3004 118.796 94.6772 118.21 94.2178C117.624 93.7583 116.829 93.5002 116 93.5002Z" fill="white"/>
<path d="M80.2334 89.0118C79.5438 88.6514 78.6998 88.5205 77.8872 88.6479C77.0745 88.7753 76.3596 89.1506 75.8999 89.6913L71.1807 95.242L67.3989 93.7586C67.0318 93.6147 66.6322 93.5289 66.2228 93.5061C65.8134 93.4833 65.4023 93.5239 65.0129 93.6257C64.6235 93.7274 64.2635 93.8883 63.9535 94.0991C63.6434 94.3099 63.3894 94.5666 63.2058 94.8544C63.0223 95.1422 62.9128 95.4555 62.8837 95.7765C62.8546 96.0975 62.9065 96.4198 63.0362 96.725C63.166 97.0303 63.3712 97.3125 63.6402 97.5556C63.9091 97.7987 64.2364 97.9979 64.6035 98.1418L70.8535 100.592C71.535 100.859 72.3175 100.922 73.054 100.769C73.7904 100.615 74.4301 100.256 74.8525 99.7591L81.1025 92.4092C81.3301 92.1414 81.488 91.8411 81.5675 91.5254C81.6469 91.2097 81.6463 90.8848 81.5656 90.5693C81.4849 90.2539 81.3257 89.9539 81.0971 89.6867C80.8685 89.4194 80.575 89.1901 80.2334 89.0118Z" fill="white"/>
<path d="M125.375 27.3508H111.264C110.542 26.594 109.607 25.9789 108.531 25.5537C107.455 25.1286 106.267 24.9051 105.063 24.9008H99.8306C99.1865 23.4679 97.9912 22.227 96.4096 21.3492C94.8279 20.4714 92.9378 20 91 20C89.0622 20 87.1721 20.4714 85.5904 21.3492C84.0088 22.227 82.8135 23.4679 82.1694 24.9008H76.9375C75.7325 24.9051 74.5453 25.1286 73.4692 25.5537C72.3932 25.9789 71.4576 26.594 70.7363 27.3508H56.625C52.4848 27.3604 48.5176 28.654 45.59 30.9493C42.6624 33.2445 41.0122 36.3547 41 39.6007V105.75C41.0122 108.996 42.6624 112.106 45.59 114.401C48.5176 116.697 52.4848 117.99 56.625 118H125.375C129.515 117.99 133.482 116.697 136.41 114.401C139.338 112.106 140.988 108.996 141 105.75V39.6007C140.988 36.3547 139.338 33.2445 136.41 30.9493C133.482 28.654 129.515 27.3604 125.375 27.3508ZM91 24.9008C91.6181 24.9008 92.2223 25.0445 92.7362 25.3137C93.2501 25.5829 93.6506 25.9655 93.8871 26.4132C94.1237 26.8609 94.1855 27.3535 94.065 27.8287C93.9444 28.304 93.6468 28.7405 93.2097 29.0832C92.7727 29.4258 92.2159 29.6591 91.6097 29.7537C91.0035 29.8482 90.3751 29.7997 89.8041 29.6142C89.2331 29.4288 88.745 29.1148 88.4017 28.7119C88.0583 28.309 87.875 27.8353 87.875 27.3508C87.8757 26.7011 88.2051 26.0783 88.791 25.6189C89.3769 25.1596 90.1714 24.9013 91 24.9008ZM75.375 31.0257C75.3807 30.7022 75.5471 30.3932 75.8389 30.1645C76.1307 29.9357 76.5249 29.8052 76.9375 29.8007H82.1694C82.8135 31.2336 84.0088 32.4745 85.5904 33.3523C87.1721 34.2301 89.0622 34.7015 91 34.7015C92.9378 34.7015 94.8279 34.2301 96.4096 33.3523C97.9912 32.4745 99.1865 31.2336 99.8306 29.8007H105.063C105.475 29.8052 105.869 29.9357 106.161 30.1645C106.453 30.3932 106.619 30.7022 106.625 31.0257V38.3757C106.619 38.6992 106.453 39.0082 106.161 39.2369C105.869 39.4657 105.475 39.5962 105.063 39.6007H76.9375C76.5249 39.5962 76.1307 39.4657 75.8389 39.2369C75.5471 39.0082 75.3807 38.6992 75.375 38.3757V31.0257ZM134.75 105.75C134.747 107.699 133.759 109.567 132.001 110.945C130.244 112.323 127.861 113.098 125.375 113.1H56.625C54.1394 113.098 51.7563 112.323 49.9987 110.945C48.2411 109.567 47.2526 107.699 47.25 105.75V39.6007C47.2526 37.652 48.2411 35.7836 49.9987 34.4057C51.7563 33.0278 54.1394 32.2527 56.625 32.2507H69.125V38.3757C69.1308 39.9987 69.9558 41.554 71.4196 42.7016C72.8835 43.8493 74.8673 44.4961 76.9375 44.5006H105.063C107.133 44.4961 109.116 43.8493 110.58 42.7016C112.044 41.554 112.869 39.9987 112.875 38.3757V32.2507H125.375C127.861 32.2527 130.244 33.0278 132.001 34.4057C133.759 35.7836 134.747 37.652 134.75 39.6007V105.75Z" fill="white"/>
</svg>
