    <svg width="60" height="70" viewBox="0 0 60 70" fill="none" xmlns="http://www.w3.org/2000/svg">
<path d="M60 35.008C60 29.8009 55.0224 24.8661 47.391 21.8059C49.1521 11.6159 48.3693 3.50881 44.9205 0.913252C44.1256 0.304417 43.1961 0.0160217 42.181 0.0160217V3.58892C42.7436 3.58892 43.1961 3.73312 43.5752 4.00549C45.2385 5.25521 45.9601 10.0137 45.3975 16.1341C45.263 17.6402 45.0428 19.2264 44.7737 20.8446C42.3767 20.0755 39.7595 19.4827 37.0077 19.0982C35.3567 16.1341 33.6445 13.4424 31.9201 11.0872C35.9071 6.23255 39.6494 3.5729 42.1932 3.5729V0C38.83 0 34.4272 3.14031 29.9755 8.58778C25.5239 3.17235 21.1211 0.0640881 17.7578 0.0640881V3.63699C20.2894 3.63699 24.044 6.28061 28.031 11.1032C26.3188 13.4585 24.6066 16.1341 22.98 19.0982C20.2161 19.4827 17.5989 20.0755 15.2018 20.8606C14.9205 19.2584 14.7126 17.7043 14.5658 16.2142C13.991 10.0938 14.7004 5.33532 16.3514 4.06958C16.7183 3.78119 17.1953 3.65301 17.7578 3.65301V0.0801099C16.7305 0.0801099 15.8011 0.368505 14.9939 0.97734C11.5573 3.5729 10.7868 11.664 12.5601 21.8219C4.95312 24.8981 0 29.8169 0 35.008C0 40.2152 4.97758 45.1499 12.6091 48.2101C10.8479 58.4001 11.6307 66.5072 15.0795 69.1028C15.8744 69.7116 16.8039 70 17.8312 70C21.1945 70 25.5972 66.8597 30.0489 61.4122C34.5006 66.8276 38.9034 69.9359 42.2666 69.9359C43.2939 69.9359 44.2234 69.6475 45.0306 69.0387C48.4672 66.4431 49.2377 58.352 47.4643 48.1941C55.0469 45.1339 60 40.1991 60 35.008ZM44.0766 24.3214C43.6241 26.3882 43.0616 28.5191 42.4256 30.65C41.9242 29.3683 41.3983 28.0865 40.8235 26.8048C40.2609 25.523 39.6616 24.2733 39.0624 23.0556C40.799 23.3921 42.4745 23.8087 44.0766 24.3214ZM38.4753 41.3848C37.5214 43.5477 36.543 45.5985 35.5279 47.5051C33.7057 47.7134 31.859 47.8256 30 47.8256C28.1533 47.8256 26.3066 47.7134 24.4965 47.5212C23.4815 45.6146 22.4908 43.5798 21.5369 41.4328C20.6074 39.3339 19.7636 37.203 18.9931 35.0561C19.7513 32.9091 20.6074 30.7622 21.5247 28.6633C22.4786 26.5003 23.457 24.4495 24.4721 22.5429C26.2943 22.3346 28.1411 22.2225 30 22.2225C31.8467 22.2225 33.6934 22.3346 35.5035 22.5269C36.5186 24.4335 37.5092 26.4683 38.4631 28.6152C39.3926 30.7141 40.2364 32.845 41.0069 34.992C40.2364 37.1389 39.3926 39.2859 38.4753 41.3848ZM42.4256 39.3019C43.086 41.4488 43.6486 43.5958 44.1133 45.6786C42.5112 46.1913 40.8235 46.6239 39.0746 46.9604C39.6739 45.7267 40.2731 44.461 40.8357 43.1632C41.3983 41.8814 41.9242 40.5837 42.4256 39.3019ZM30.0245 56.3973C28.8871 54.8592 27.7497 53.1449 26.6245 51.2703C27.7252 51.3344 28.8504 51.3825 29.9878 51.3825C31.1374 51.3825 32.2748 51.3504 33.3877 51.2703C32.287 53.1449 31.1496 54.8592 30.0245 56.3973ZM20.9254 46.9604C19.1887 46.6239 17.5133 46.2074 15.9111 45.6947C16.3636 43.6278 16.9262 41.4969 17.5622 39.366C18.0636 40.6477 18.5895 41.9295 19.1643 43.2113C19.7391 44.493 20.3261 45.7427 20.9254 46.9604ZM29.9633 13.6187C31.1007 15.1568 32.2381 16.8711 33.3632 18.7457C32.2625 18.6816 31.1374 18.6336 30 18.6336C28.8504 18.6336 27.713 18.6656 26.6001 18.7457C27.7008 16.8711 28.8382 15.1568 29.9633 13.6187ZM20.9132 23.0556C20.3139 24.2893 19.7146 25.555 19.1521 26.8528C18.5895 28.1346 18.0636 29.4163 17.5622 30.6981C16.9018 28.5512 16.3392 26.4042 15.8744 24.3214C17.4766 23.8247 19.1643 23.3921 20.9132 23.0556ZM9.84509 43.1151C5.5157 40.6958 2.71504 37.5235 2.71504 35.008C2.71504 32.4926 5.5157 29.3042 9.84509 26.9009C10.8969 26.3081 12.0465 25.7794 13.2328 25.2827C13.9299 28.423 14.8471 31.6915 15.9845 35.0401C14.8594 38.3726 13.9543 41.6251 13.2695 44.7494C12.0587 44.2527 10.9091 43.7079 9.84509 43.1151ZM16.4248 66.0105C14.7615 64.7608 14.04 60.0023 14.6025 53.8819C14.7371 52.3758 14.9572 50.7896 15.2263 49.1714C17.6233 49.9405 20.2405 50.5333 22.9923 50.9178C24.6433 53.8819 26.3555 56.5736 28.0799 58.9288C24.0929 63.7835 20.3506 66.4431 17.8068 66.4431C17.2564 66.4271 16.7917 66.2829 16.4248 66.0105ZM45.4342 53.8018C46.009 59.9222 45.2996 64.6807 43.6486 65.9464C43.2817 66.2348 42.8047 66.363 42.2422 66.363C39.7106 66.363 35.956 63.7194 31.969 58.8968C33.6812 56.5415 35.3934 53.8659 37.02 50.9018C39.7839 50.5173 42.4011 49.9245 44.7982 49.1394C45.0795 50.7576 45.2996 52.3117 45.4342 53.8018ZM50.1427 43.1151C49.0909 43.7079 47.9413 44.2367 46.755 44.7333C46.0579 41.593 45.1406 38.3246 44.0033 34.976C45.1284 31.6434 46.0334 28.3909 46.7183 25.2667C47.9291 25.7633 49.0787 26.3081 50.1549 26.9009C54.4843 29.3202 57.285 32.4926 57.285 35.008C57.2727 37.5235 54.4721 40.7118 50.1427 43.1151Z" fill="#61DAFB"/>
<path d="M29.9878 42.3301C33.0745 42.3301 35.5768 39.0519 35.5768 35.008C35.5768 30.9642 33.0745 27.686 29.9878 27.686C26.901 27.686 24.3987 30.9642 24.3987 35.008C24.3987 39.0519 26.901 42.3301 29.9878 42.3301Z" fill="#61DAFB"/>
</svg>
