<svg width="118" height="134" viewBox="0 0 118 134" fill="none" xmlns="http://www.w3.org/2000/svg">
<path d="M90.129 109.965C87.83 109.965 85.747 110.833 84.113 112.216C84 112.1 61.083 98.831 61.083 98.831V90.054C64.832 89.2 67.631 85.864 67.631 81.859C67.631 77.208 63.864 73.438 59.212 73.438C54.564 73.438 50.792 77.208 50.792 81.859C50.792 85.864 53.595 89.201 57.341 90.054V98.865C57.341 98.865 34.467 112.107 34.348 112.231C32.709 110.817 30.602 109.931 28.272 109.931C23.116 109.931 18.917 114.128 18.917 119.286C18.917 124.444 23.116 128.641 28.272 128.641C33.432 128.641 37.628 124.444 37.628 119.286C37.628 117.786 37.24 116.386 36.608 115.127L57.34 103.183C57.34 103.183 57.371 115.341 57.377 115.404C53.096 116.26 49.856 120.045 49.856 124.575C49.856 129.733 54.055 133.93 59.211 133.93C64.371 133.93 68.565 129.733 68.565 124.575C68.565 120.045 65.328 116.261 61.045 115.404C61.052 115.341 61.081 103.15 61.081 103.15L81.823 115.102C81.173 116.375 80.77 117.795 80.77 119.321C80.77 124.48 84.969 128.676 90.126 128.676C95.286 128.676 99.481 124.48 99.481 119.321C99.484 114.162 95.289 109.965 90.129 109.965ZM28.272 126.77C24.146 126.77 20.788 123.414 20.788 119.286C20.788 115.158 24.146 111.802 28.272 111.802C32.4 111.802 35.757 115.158 35.757 119.286C35.757 123.414 32.4 126.77 28.272 126.77ZM66.695 124.574C66.695 128.702 63.34 132.058 59.212 132.058C55.086 132.058 51.728 128.702 51.728 124.574C51.728 120.452 55.077 117.102 59.194 117.092C59.202 117.092 59.208 117.095 59.213 117.095C59.22 117.095 59.226 117.092 59.232 117.092C63.349 117.102 66.695 120.452 66.695 124.574ZM90.129 126.805C86.003 126.805 82.644 123.449 82.644 119.321C82.644 115.194 86.003 111.837 90.129 111.837C94.258 111.837 97.613 115.194 97.613 119.321C97.613 123.448 94.258 126.805 90.129 126.805Z" fill="#15A54F"/>
<path d="M23.683 66.845L29.472 70.277C28.822 71.551 28.42 72.97 28.42 74.497C28.42 79.655 32.619 83.852 37.775 83.852C42.935 83.852 47.13 79.655 47.13 74.497C47.13 69.339 42.935 65.142 37.775 65.142C35.475 65.142 33.393 66.009 31.76 67.393C31.646 67.276 25.624 63.709 25.624 63.709V55.029C29.966 54.219 33.264 50.419 33.264 45.846C33.264 44.346 32.877 42.947 32.244 41.688L52.976 29.742C52.976 29.742 53.007 41.901 53.013 41.963C48.732 42.82 45.492 46.605 45.492 51.134C45.492 56.293 49.691 60.49 54.847 60.49C60.007 60.49 64.202 56.293 64.202 51.134C64.202 46.605 60.965 42.821 56.681 41.963C56.688 41.901 56.718 29.71 56.718 29.71L77.462 41.663C76.812 42.936 76.409 44.356 76.409 45.882C76.409 51.04 80.608 55.237 85.764 55.237C90.924 55.237 95.12 51.04 95.12 45.882C95.12 40.724 90.924 36.527 85.764 36.527C83.462 36.527 81.382 37.395 79.749 38.778C79.636 38.661 56.717 25.393 56.717 25.393V16.615C60.464 15.762 63.266 12.425 63.266 8.42C63.266 3.77 59.498 0 54.846 0C50.198 0 46.426 3.77 46.426 8.42C46.426 12.425 49.229 15.762 52.975 16.615V25.426C52.975 25.426 30.101 38.669 29.982 38.793C28.343 37.379 26.236 36.492 23.906 36.492C18.75 36.492 14.551 40.689 14.551 45.847C14.551 50.308 17.696 54.037 21.88 54.967V63.741C21.88 63.741 15.55 67.387 15.432 67.511C13.793 66.097 11.686 65.211 9.356 65.211C4.199 65.211 0 69.408 0 74.566C0 79.724 4.199 83.921 9.356 83.921C14.516 83.921 18.711 79.724 18.711 74.566C18.711 73.066 18.324 71.666 17.691 70.407L23.683 66.845ZM37.774 67.012C41.902 67.012 45.258 70.368 45.258 74.496C45.258 78.624 41.902 81.98 37.774 81.98C33.648 81.98 30.29 78.624 30.29 74.496C30.29 70.368 33.648 67.012 37.774 67.012ZM85.765 38.396C89.891 38.396 93.249 41.752 93.249 45.88C93.249 50.008 89.891 53.364 85.765 53.364C81.639 53.364 78.281 50.008 78.281 45.88C78.281 41.752 81.639 38.396 85.765 38.396ZM54.847 43.655C54.854 43.655 54.86 43.651 54.865 43.651C58.984 43.662 62.331 47.011 62.331 51.133C62.331 55.261 58.975 58.618 54.847 58.618C50.721 58.618 47.363 55.261 47.363 51.133C47.363 47.011 50.712 43.661 54.829 43.651C54.836 43.651 54.841 43.655 54.847 43.655ZM16.423 45.846C16.423 41.719 19.781 38.362 23.907 38.362C28.035 38.362 31.391 41.719 31.391 45.846C31.391 49.974 28.035 53.331 23.907 53.331C19.781 53.331 16.423 49.974 16.423 45.846ZM9.357 82.05C5.231 82.05 1.872 78.694 1.872 74.566C1.872 70.438 5.231 67.082 9.357 67.082C13.484 67.082 16.841 70.438 16.841 74.566C16.841 78.694 13.484 82.05 9.357 82.05Z" fill="#15A54F"/>
<path d="M108.175 84.623C105.876 84.623 103.793 85.49 102.159 86.874C102.046 86.757 96.023 83.19 96.023 83.19V74.412C99.772 73.558 102.572 70.222 102.572 66.217C102.572 61.567 98.804 57.797 94.152 57.797C89.504 57.797 85.732 61.567 85.732 66.217C85.732 70.222 88.535 73.559 92.281 74.412V83.223C92.281 83.223 85.951 86.869 85.834 86.993C84.193 85.579 82.089 84.693 79.757 84.693C74.601 84.693 70.402 88.89 70.402 94.048C70.402 99.206 74.601 103.403 79.757 103.403C84.917 103.403 89.112 99.206 89.112 94.048C89.112 92.548 88.725 91.148 88.092 89.889L94.082 86.327L99.87 89.759C99.22 91.032 98.818 92.452 98.818 93.979C98.818 99.137 103.016 103.334 108.173 103.334C113.333 103.334 117.528 99.137 117.528 93.979C117.528 88.821 113.335 84.623 108.175 84.623ZM79.757 101.532C75.631 101.532 72.273 98.176 72.273 94.048C72.273 89.92 75.631 86.564 79.757 86.564C83.887 86.564 87.241 89.92 87.241 94.048C87.241 98.176 83.887 101.532 79.757 101.532ZM108.175 101.463C104.049 101.463 100.691 98.107 100.691 93.979C100.691 89.851 104.049 86.495 108.175 86.495C112.305 86.495 115.659 89.851 115.659 93.979C115.659 98.107 112.305 101.463 108.175 101.463Z" fill="#15A54F"/>
</svg>
