<svg width="208" height="223" viewBox="0 0 208 223" fill="none" xmlns="http://www.w3.org/2000/svg">
<path d="M88.38 45.4L51.25 26.66L10.49 47L48.63 66.15L88.38 45.4Z" fill="#4DABCF"/>
<path d="M105.41 53.99L144.34 73.65L103.95 93.93L65.75 74.75L105.41 53.99Z" fill="#4DABCF"/>
<path d="M157.41 26.94L197.41 47L161.63 64.96L122.62 45.28L157.41 26.94Z" fill="#4DABCF"/>
<path d="M140.19 18.3L104.18 0.23999L68.56 18.02L105.67 36.73L140.19 18.3Z" fill="#4DABCF"/>
<path d="M112.04 173.36V222.5L155.66 200.73L155.62 151.57L112.04 173.36Z" fill="#4DABCF"/>
<path d="M155.6 134.41L155.55 85.77L112.04 107.4V156.06L155.6 134.41Z" fill="#4DABCF"/>
<path d="M207.97 125.3V174.63L170.76 193.19L170.73 144.09L207.97 125.3Z" fill="#4DABCF"/>
<path d="M207.97 108.05V59.71L170.69 78.24L170.72 126.98L207.97 108.05Z" fill="#4DABCF"/>
<path d="M96.64 107.4L67.26 92.62V156.46C67.26 156.46 31.32 80 28 73.13C27.57 72.24 25.81 71.27 25.36 71.03C18.88 67.65 0 58.09 0 58.09V170.92L26.12 184.92V125.92C26.12 125.92 61.67 194.24 62.04 194.99C62.41 195.74 65.96 202.93 69.78 205.46C74.85 208.83 96.62 221.92 96.62 221.92L96.64 107.4Z" fill="#4D77CF"/>
</svg>
