<svg width="338" height="228" viewBox="0 0 338 228" fill="none" xmlns="http://www.w3.org/2000/svg">
<g filter="url(#filter0_i_117_42)">
<path d="M0 15C0 6.71573 6.71573 0 15 0H323C331.284 0 338 6.71573 338 15V213C338 221.284 331.284 228 323 228H15C6.71573 228 0 221.284 0 213V15Z" fill="white"/>
<path fill-rule="evenodd" clip-rule="evenodd" d="M323 15H15V213H323V15ZM15 0C6.71573 0 0 6.71573 0 15V213C0 221.284 6.71573 228 15 228H323C331.284 228 338 221.284 338 213V15C338 6.71573 331.284 0 323 0H15Z" fill="#F0F0F0"/>
<path d="M178.568 129.038C173.418 132.621 166.582 132.621 161.432 129.038L15.2488 27.3123C3.19347 18.9233 9.12961 1.52588e-05 23.8166 1.52588e-05L316.183 1.52588e-05C330.87 1.52588e-05 336.807 18.9232 324.751 27.3123L178.568 129.038Z" fill="white"/>
<path fill-rule="evenodd" clip-rule="evenodd" d="M23.8167 15L170 116.726L316.183 15L23.8167 15ZM161.432 129.038C166.582 132.621 173.418 132.621 178.568 129.038L324.751 27.3123C336.807 18.9232 330.87 1.52588e-05 316.183 1.52588e-05L23.8166 1.52588e-05C9.12961 1.52588e-05 3.19345 18.9233 15.2488 27.3123L161.432 129.038Z" fill="#F0F0F0"/>
</g>
<defs>
<filter id="filter0_i_117_42" x="0" y="0" width="342" height="232" filterUnits="userSpaceOnUse" color-interpolation-filters="sRGB">
<feFlood flood-opacity="0" result="BackgroundImageFix"/>
<feBlend mode="normal" in="SourceGraphic" in2="BackgroundImageFix" result="shape"/>
<feColorMatrix in="SourceAlpha" type="matrix" values="0 0 0 0 0 0 0 0 0 0 0 0 0 0 0 0 0 0 127 0" result="hardAlpha"/>
<feOffset dx="4" dy="4"/>
<feGaussianBlur stdDeviation="5"/>
<feComposite in2="hardAlpha" operator="arithmetic" k2="-1" k3="1"/>
<feColorMatrix type="matrix" values="0 0 0 0 0 0 0 0 0 0 0 0 0 0 0 0 0 0 0.25 0"/>
<feBlend mode="normal" in2="shape" result="effect1_innerShadow_117_42"/>
</filter>
</defs>
</svg>
