<svg width="700" height="701" viewBox="0 0 700 701" fill="none" xmlns="http://www.w3.org/2000/svg">
<path d="M697.09 103.65L368.545 691.143C361.76 703.27 344.335 703.343 337.447 691.273L2.38984 103.705C-5.11016 90.5501 6.13485 74.6176 21.0398 77.2801L349.94 136.07C352.038 136.445 354.186 136.442 356.282 136.06L678.302 77.3651C693.157 74.6576 704.46 90.4701 697.09 103.65Z" fill="url(#paint0_linear_140_5)"/>
<path d="M506.61 0.172605L263.477 47.8126C261.534 48.1928 259.773 49.2081 258.47 50.6989C257.167 52.1896 256.397 54.0712 256.28 56.0476L241.325 308.643C240.975 314.593 246.437 319.21 252.242 317.87L319.935 302.25C326.27 300.788 331.992 306.368 330.69 312.735L310.58 411.218C309.225 417.843 315.447 423.513 321.92 421.548L363.73 408.843C370.212 406.875 376.44 412.56 375.07 419.193L343.11 573.885C341.11 583.56 353.98 588.835 359.347 580.54L362.932 575L561.05 179.62C564.367 173 558.65 165.453 551.375 166.855L481.7 180.303C475.15 181.565 469.58 175.468 471.427 169.06L516.905 11.4101C518.755 4.9901 513.165 -1.11239 506.61 0.172605Z" fill="url(#paint1_linear_140_5)"/>
<defs>
<linearGradient id="paint0_linear_140_5" x1="-5.79179" y1="-23.2617" x2="466.756" y2="547.944" gradientUnits="userSpaceOnUse">
<stop stop-color="#41D1FF"/>
<stop offset="1" stop-color="#BD34FE"/>
</linearGradient>
<linearGradient id="paint1_linear_140_5" x1="331.044" y1="13.105" x2="405.009" y2="520.492" gradientUnits="userSpaceOnUse">
<stop stop-color="#FFEA83"/>
<stop offset="0.0833" stop-color="#FFDD35"/>
<stop offset="1" stop-color="#FFA800"/>
</linearGradient>
</defs>
</svg>
