<svg width="60" height="70" viewBox="0 0 60 70" fill="none" xmlns="http://www.w3.org/2000/svg">
<path d="M29.7839 0C14.5521 0 15.5031 7.74658 15.5031 7.74658L15.52 15.7723H30.0555V18.1818H9.74681C9.74681 18.1818 0 16.8854 0 34.9094C0 52.9338 8.50726 52.2946 8.50726 52.2946H13.5844V43.9305C13.5844 43.9305 13.3106 33.9535 21.9558 33.9535H36.3723C36.3723 33.9535 44.472 34.107 44.472 24.7731V9.33998C44.472 9.33998 45.7021 0 29.7839 0ZM21.769 5.39712C22.1125 5.39676 22.4527 5.47583 22.7701 5.62982C23.0875 5.7838 23.3759 6.00968 23.6187 6.29452C23.8616 6.57936 24.0542 6.91757 24.1855 7.2898C24.3168 7.66203 24.3843 8.06097 24.3839 8.46379C24.3843 8.86661 24.3168 9.26556 24.1855 9.63778C24.0542 10.01 23.8616 10.3482 23.6187 10.6331C23.3759 10.9179 23.0875 11.1438 22.7701 11.2978C22.4527 11.4518 22.1125 11.5308 21.769 11.5305C21.4256 11.5308 21.0854 11.4518 20.768 11.2978C20.4506 11.1438 20.1622 10.9179 19.9193 10.6331C19.6765 10.3482 19.4839 10.01 19.3526 9.63778C19.2212 9.26556 19.1538 8.86661 19.1541 8.46379C19.1538 8.06097 19.2212 7.66203 19.3526 7.2898C19.4839 6.91757 19.6765 6.57936 19.9193 6.29452C20.1622 6.00968 20.4506 5.7838 20.768 5.62982C21.0854 5.47583 21.4256 5.39676 21.769 5.39712Z" fill="url(#paint0_linear_8_10)"/>
<path d="M30.2164 70C45.4482 70 44.4971 62.2534 44.4971 62.2534L44.4802 54.228H29.9446V51.8185H50.2532C50.2532 51.8185 60 53.1149 60 35.0904C60 17.0662 51.4927 17.7054 51.4927 17.7054H46.4156V26.0692C46.4156 26.0692 46.6894 36.0462 38.0442 36.0462H23.6277C23.6277 36.0462 15.528 35.8927 15.528 45.2269V60.6603C15.528 60.6603 14.2983 70 30.2164 70ZM38.2312 64.6034C37.8877 64.6038 37.5476 64.5247 37.2302 64.3707C36.9128 64.2168 36.6244 63.9909 36.3815 63.706C36.1386 63.4212 35.946 63.083 35.8147 62.7108C35.6834 62.3385 35.616 61.9396 35.6163 61.5368C35.616 61.1339 35.6834 60.7349 35.8146 60.3627C35.9459 59.9904 36.1385 59.6522 36.3814 59.3673C36.6243 59.0824 36.9127 58.8565 37.2301 58.7025C37.5475 58.5485 37.8877 58.4695 38.2312 58.4698C38.5747 58.4695 38.9149 58.5485 39.2322 58.7025C39.5496 58.8565 39.838 59.0824 40.0809 59.3672C40.3238 59.6521 40.5164 59.9903 40.6477 60.3625C40.779 60.7347 40.8464 61.1337 40.8461 61.5365C40.8464 61.9393 40.779 62.3382 40.6477 62.7105C40.5164 63.0827 40.3238 63.4209 40.0809 63.7058C39.838 63.9906 39.5496 64.2165 39.2322 64.3705C38.9149 64.5244 38.5747 64.6038 38.2312 64.6034Z" fill="url(#paint1_linear_8_10)"/>
<defs>
<linearGradient id="paint0_linear_8_10" x1="777.54" y1="842.73" x2="5384.73" y2="4761.07" gradientUnits="userSpaceOnUse">
<stop stop-color="#387EB8"/>
<stop offset="1" stop-color="#366994"/>
</linearGradient>
<linearGradient id="paint1_linear_8_10" x1="866.587" y1="1093.93" x2="4531.77" y2="4048.33" gradientUnits="userSpaceOnUse">
<stop stop-color="#FFE052"/>
<stop offset="1" stop-color="#FFC331"/>
</linearGradient>
</defs>
</svg>
