<svg width="165" height="97" viewBox="0 0 165 97" fill="none" xmlns="http://www.w3.org/2000/svg">
<path d="M54.5258 2.12683C52.963 2.12683 48.5 2.12683 47 2.12683C45.5 2.12683 45.5 2.12683 43.6207 2.12683H35.3571L31 0L26.5179 2.12683C19.4872 2.13274 10.9714 1.71591 6 5.5C1.02864 9.28424 0.00779877 16.9605 0 22.3121L0 76.1394C0.00779877 81.4911 2.80415 86.6218 7.77551 90.406C12.7469 94.1902 19.4872 96.3188 26.5179 96.3247L138.482 96.3247C145.513 96.3188 152.254 94.1902 157.225 90.406C162.196 86.6218 164.993 81.4911 165 76.1394V22.3121C164.993 16.9605 166.471 9.28424 161.5 5.5C156.529 1.71591 145.513 2.13274 138.482 2.12683H62.5629H59.0302C57.6078 2.12683 55.9051 2.12774 54.5258 2.12683Z" fill="white"/>
</svg>
